<?xml version="1.0" encoding="UTF-8"?>
<svg id="Layer_2" xmlns="http://www.w3.org/2000/svg" viewBox="0 0 670.61 692.67">
  <defs>
    <style>
      .cls-1 {
        fill: #707070;
      }
    </style>
  </defs>
  <g id="Layer_1-2" data-name="Layer_1">
    <g>
      <path class="cls-1" d="M191.45,97.94c7-1.72,14.02-2.97,20.99-5.35,4.16-1.42,8.21-5.81,12.36-6.66,3.39-.69,6.86,1.95,10.29,2.99,1.23.37,2.47.38,3.7.56-.62-1.41-1.24-2.82-1.85-4.23-.12-.28-.23-.61-.35-.92,1.22-1.39,2.41-3.43,3.68-4.03,1.88-.88,3.85-1.57,5.71-.8,1.9.79,3.67,3.81,5.57,5.12,1.19.82,2.49.31,3.74.39-.38-1.99-.76-3.99-1.14-5.98,1.92-1.46,3.81-3.51,5.76-4.26,5.47-2.09,10.96-3.65,16.44-5.38,3.75-1.18,7.51-2.4,11.27-3.11.21-.04.41,6.19.82,6.4,1.97,1.03,4.13,2.29,5.96.83.97-.77,1.42-6.91,2.1-10.63.09-.47.17-1.43.2-1.41.72.37,1.57.32,2.12,1.44.91,1.86,1.64,4.48,2.44,6.78-1.36.42-2.73.84-4.09,1.26.41.65.8,1.55,1.25,1.92,1.7,1.41,3.42,2.75,5.15,3.89.49.33,1.05-.12,1.57-.13,2.6-.04,5.2-.04,7.79-.06-2.57.95-5.14,2.02-7.72,2.81-4.17,1.28-8.34,2.55-12.52,3.36-.62.12-1.31-2.3-1.95-3.62-.26-.54-.46-1.3-.69-1.96-.23.69-.67,1.42-.65,2.06.05,1.84.2,5.12.46,5.24,4.35,1.97,8.72,3.63,13.09,5.13.97.33,1.98-.27,2.98-.39,2.56-.32,5.11-.61,7.67-.92-.03.46-.03,1.29-.08,1.32-2.94,1.6-5.89,3.04-8.82,4.74-.64.37-1.27,1.42-1.79,2.57-.21.46-.19,2.93-.13,2.99.57.48,1.17.73,1.77.82,4.09.6,8.26,2.8,12.23,1.18,3.08-1.25,5.92-7.31,8.87-11.22-1.81-1.31-3.62-2.71-5.45-3.89-.52-.34-1.09-.05-1.64-.04.48-.96.92-2.48,1.45-2.8,4.16-2.51,8.34-4.74,12.5-7.21.41-.24.75-1.48,1.11-2.26-1.17-.68-2.33-1.52-3.51-2.01-1.7-.71-3.79.26-4.96-2.29-.68-1.49-.17-8.71.33-12.82.26-2.14,1.63-3.56,2.6-4.53,2.38-2.39,4.78-5.06,7.25-6.22,2.04-.96,4.2.06,6.31.21,0,.35.04.88-.02,1.04-1.01,2.47-2.04,4.89-3.06,7.33,2.13.1,4.25.21,6.38.31.47.02.94-.02,1.41-.03-.26,1.03-.58,1.99-.77,3.12-.14.86-.12,1.95-.18,2.94,2.67.83,5.39,3.07,7.99,2.23,6.86-2.2,13.66-6.03,20.5-8.62,5.24-1.98,10.52-4.21,15.78-4.21,5.16,0,10.32,2.67,15.48,4.18-.35,2.81-.54,5.9-1.09,8.33-.33,1.47-1.22,1.91-1.87,2.81.97.59,1.94,1.31,2.92,1.75,2.55,1.12,5.1,2.11,7.65,3.15-2.37-.33-4.76-1.46-7.1-.82-6.27,1.7-12.51,4.16-18.76,6.32.1,1.86,0,4.86.35,5.4,1.97,3.01,4.05,5.43,6.1,8.06-.8,1.04-1.58,2.16-2.4,3.09-.25.29-.59-.07-.87.1-1.12.69-2.23,1.47-3.34,2.21,1.1.44,2.19.99,3.3,1.3,14.31,3.91,28.59,9.68,42.93,11.11,12.91,1.29,25.88-1.95,38.81-3.69,3.58-.48,7.17-4.35,10.69-3.68,3.31.63,6.48,5.73,9.79,7.8,1.48.92,3.16-.79,4.74-1.31-.06-.78-.08-2.18-.19-2.24-1.81-.99-3.63-1.97-5.46-2.54-.32-.1-.71,1.71-1.08,2.59,0,.02-.31-.86-.3-.91.34-1.23.77-3.53,1.06-3.4,2.36.99,4.69,2.84,7.05,3.64,3.07,1.04,6.18,2.05,9.26,1.84,6.44-.45,12.86-1.74,19.3-2.59.36-.05.74.71,1.11,1.09-.59,1.48-1.11,3.89-1.77,4.28-6.32,3.69-12.69,6.86-19.01,10.61-1.43.85-2.73,3.41-4.08,5.18.93,2.04,1.8,5.3,2.82,5.75.9.39,1.93-2.81,2.97-3.62,1.18-.91,2.57-.17,3.64-1.55,1.09-1.39,1.82-5.91,2.89-6.57,3.74-2.3,7.56-3.71,11.37-4.9.47-.15,1.02,4.42,1.61,4.58,2.8.76,5.64,1.26,8.45.93,7.51-.9,15.02-2.31,22.53-3.43,1.13-.17,2.27.18,3.41.28-.9.89-1.82,1.68-2.7,2.69-4.85,5.56-9.6,11.9-14.56,16.54-4.25,3.98-8.74,5.89-13.09,9.06-.81.59-1.48,2.8-2.22,4.26.93.56,1.88,1.8,2.79,1.58,5.01-1.25,10.04-2.21,14.99-4.59,2.95-1.42,5.74-5.48,8.65-7.84,1.19-.96,2.51-.58,3.78-.8-1.48,1.39-2.94,3.26-4.46,4.09-8.98,4.91-17.97,9.59-26.96,14.3-.78.41-1.61.11-2.36.73-1.46,1.21-2.87,2.84-4.3,4.29.85.51,1.7,1.39,2.55,1.48,9.31.98,18.75,5.04,27.91,2.07,20.95-6.81,41.73-17.67,62.64-25.61,7.59-2.88,15.34-2.17,23.03-2.93.48-.05.97,1.35,1.46,2.07-.39.87-.75,2.31-1.18,2.54-6.66,3.42-13.33,6.66-19.99,10.05-.59.3-1.12,1.41-1.68,2.15.6.7,1.21,2.13,1.78,1.99,8.48-2.09,16.94-4.38,25.42-6.62.47-.12.95-.2,1.42-.29-.08.58-.09,1.37-.24,1.71-.93,2.14-1.84,5.71-2.84,5.95-2.45.6-4.95-.46-7.44-.47-.22,0-.76,3.56-.61,4,.51,1.53,1.26,2.41,1.92,3.53-1.61.59-3.26.7-4.82,1.86-10.21,7.59-20.48,14.68-30.54,23.6-3.04,2.69-5.24,12.79-8.28,15.81-5.48,5.45-11.31,8.06-16.97,12.02-.72.51-1.36,2.03-2.03,3.08.5.51.99,1.22,1.51,1.47,1.17.58,2.36.94,3.54,1.39-1.21,1.04-2.42,2.11-3.63,3.12-5,4.17-10.06,7.89-14.95,12.91-.81.83-.91,7.34-1.34,11.22,3.07-.25,6.15-.34,9.21-.76,8.28-1.15,16.55-2.44,24.83-3.64.13-.02.27.41.41.63-.33.46-.65,1.01-1,1.38-5.7,6-11.41,11.9-17.08,18.08-.54.59-.85,2.89-1.27,4.39.71.34,1.42.89,2.14.97,3.12.34,6.23.51,9.35.87.21.02.41,1.08.62,1.66-.21.56-.39,1.31-.64,1.64-1.21,1.64-2.44,3.17-3.66,4.75,2,.03,4,.2,6-.01.61-.07,1.19-1.3,1.81-1.74.07-.05.29,1.58.44,2.43-.7.96-1.37,2.36-2.11,2.83-5.86,3.72-11.75,7.23-17.61,10.92-.41.26-.75,1.45-1.12,2.21.47.33.96,1.04,1.42.92,5.06-1.27,10.11-2.71,15.17-3.96.44-.11.91.81,1.37,1.25-.33.99-.63,2.76-.99,2.84-4.14,1.03-8.28,1.86-12.42,2.6-.87.16-2.37-1.1-2.51-.26-.73,4.4-1.12,9.27-1.63,13.98,1.39-.39,2.78-.76,4.17-1.17,5.37-1.62,10.73-3.69,16.12-4.58,1.34-.22,2.76,3.36,4.15,5.2-3.2,3.28-6.41,6.54-9.6,9.87-.62.64-1.2,1.55-1.8,2.34.69.64,1.44,2.17,2.05,1.79,7.4-4.55,14.79-9.41,22.18-14.1.65-.41,1.35-.27,2.02-.27.03,0,.12,1.63.07,1.68-.57.64-1.18,1.06-1.76,1.65-11.29,11.63-22.37,25.47-33.92,34.33-12.37,9.49-25.26,13.31-37.76,21.6-5.74,3.81-11.01,13.15-16.66,18.52-3.16,3-6.65,3.14-10.01,4.32-2.15.76-4.33,1.39-6.49,1.47-3.19.12-6.39-.26-9.58-.58-.19-.02-.57-1.7-.51-2.1.45-2.6.8-5.83,1.55-7.39.99-2.05,2.32-2.75,3.5-4.02-2.43-.54-4.86-1.16-7.3-1.55-.47-.08-.95.99-1.43,1.08-1.05.18-2.11.07-3.17.08.04.58.04,1.62.11,1.66,1.19.72,2.38,1.29,3.58,1.95.43.24.85.62,1.28.94-.33.64-.65,1.74-1,1.85-6.24,2.02-12.47,4.89-18.73,5.5-4.27.42-8.62-3.98-12.87-3.22-4.43.79-8.77,5.45-13.19,7.75-.72.38-1.63-2.92-2.52-4.05-.6-.75-1.36-1.18-2-.85-5.12,2.65-10.23,5.32-15.31,8.47-1.11.69-2.04,3.6-3.12,5.09-2.05,2.83-4.07,6.22-6.25,7.79-2.16,1.56-4.5,1.18-6.76,1.64-.28.06-.57-.04-.83.13-4.02,2.56-8.05,5.11-12.06,7.76-.8.53-1.56,1.48-2.33,2.24.99,1.45,1.99,4.23,2.96,4.16,14.32-.98,28.63-2.36,42.95-3.3.18-.01.39,4.42.58,6.78,1.73-2.61,3.39-7,5.2-7.54,12.9-3.85,25.95-4.87,38.73-10.77,15.61-7.2,30.97-18.71,46.51-27.43,4.29-2.41,8.84-.86,13.21-2.47,2.32-.85,4.44-5.96,6.76-6.77,7.75-2.73,15.54-4.45,23.32-6.4.82-.21,1.68.61,2.51.95-2.59,2.81-5.19,5.59-7.78,8.43-3.59,3.93-7.11,8.44-10.77,11.74-5.7,5.14-11.5,9.35-17.22,14.25-.92.79-1.63,3.37-2.51,4.7-.91,1.37-1.88,2.69-2.87,3.23-5.51,2.97-11.01,6.59-16.58,8.3-9.16,2.82-18.4,3.77-27.54,6.89-1.87.64-3.48,7.33-5.2,11.28-.14.31-.17,1.28-.29,1.33-.39.17-.8.13-1.2-.02-.04-.01,0-1.34-.03-2.04-.16-3-.09-6.46-.62-8.77-.26-1.15-1.66-.24-2.55-.14-6.97.8-13.94,1.83-20.91,2.41-10.87.9-21.75,1.18-32.62,2.38-4.12.46-8.21,3.45-12.33,3.86-1.82.18-3.73-4.9-5.51-4.51-2.3.5-4.51,5.64-6.79,5.84-1.73.15-3.57-6.68-5.24-6.26-4.77,1.19-9.44,5.44-14.21,6.72-6.04,1.62-12.14,1.44-18.21,2.16-8.87,1.05-17.75,1.84-26.61,3.49-5.12.95-10.2,3.36-15.29,5.15-4.69,1.65-9.37,3.51-14.06,4.97-3.51,1.09-7.05,1.35-10.55,2.55-5.69,1.94-11.39,3.96-17.04,6.71-2.72,1.33-5.3,5.8-8.01,6.47-18.08,4.45-36.17,8.24-54.26,12.34-.4.09-.76,1.38-1.14,2.12.48.55.97,1.58,1.45,1.59,8.35.17,16.71.61,25.05.13,4.5-.26,8.99-2.22,13.49-3.22.66-.15,1.36.67,2,1.38.1.11-.06,2.06-.1,3.17-.39-.35-.77-.74-1.16-1.03-.16-.12-.35-.11-.52-.02-1.93,1.08-3.86,2.18-5.78,3.27,1.85.41,3.7.98,5.56,1.22,19.61,2.57,39.22,5.17,58.83,7.52,2.76.33,5.59-1.69,8.3-.73,3.33,1.18,6.59,4.19,9.83,6.9.34.29.35,3.84.51,5.88-1.56.69-3.12,1.77-4.69,1.96-1.25.16-2.52-.76-3.79-1.2.12,1.35.14,3.72.37,3.89,1.84,1.38,3.71,2.99,5.6,3.29,3.69.58,7.4.33,11.1.55.14,0,.43,1.81.37,2.01-1.74,5.29-3.28,11.61-5.39,15.24-1.25,2.16-3.43-.47-5.16.07-.82.26-2.21,3.01-2.17,4.42.07,3.15.68,8.4,1.4,8.9,7.03,4.86,14.08,11.13,21.23,12.62,7.99,1.67,16.09-1.5,24.15-1.83,1.37-.06,2.95,5.79,4.11,5.02,5.21-3.45,10.25-10.72,15.48-11.89,4.07-.91,9.14,2.17,12.26,9.03,2.34,5.13.53,9.73-5.97,10.78-8.42,1.37-16.81,4.83-25.23,5.83-9.93,1.18-19.92-.86-29.81,1.26-16.47,3.53-32.88,9.3-49.32,14.05-20.88,6.03-41.76,12.07-62.64,17.94-22.45,6.31-44.89,13.27-67.37,18.31-12.81,2.87-25.72,3.24-38.58,3.36-14.39.13-28.9,1.27-43.13-3.47-4.82-1.6-8.97-19.73-13.4-30.43-2.11-5.11-4.09-14.67-6.21-14.86-3.85-.34-7.89,3.89-11.56,8.23-1.07,1.26-1.13,9.38-1.66,14.36-1.04-2.26-2.72-4-2.99-6.85-1.09-11.27-1.66-22.95-2.72-34.25-.08-.89-2.46-.13-3.77.04-5.44.69-10.91.89-16.33,2.36-3.95,1.07-7.85,3.84-11.77,5.86-.25-4.99-.48-9.99-.77-14.96-.11-1.94-.35-3.82-.53-5.72-.41.71-.88,1.24-1.22,2.16-.68,1.86-1.3,3.93-1.94,5.91-1.3-4.01-2.59-8.02-3.89-12.03-.41-1.27-.8-3.65-1.21-3.67-6.19-.37-9.09-2.95-8.35-26.63.78-24.73,6.64-29.66,11.59-40.22.2-.43,1.13,2.57,1.79,2.98.42.26,1.36-1.09,1.43-2.08,1.6-22.9,6.53-47.7-2.99-65.4-1.39-2.58-5.17,5.17-7.82,8.34-.5.6-.87,2.12-1.3,3.22-.3-1.05-.84-2.03-.88-3.16-.62-16.17-1.31-32.35-1.51-48.58-.02-1.19,3.51-3.3,5.41-3.64.34-.06.71,6.58,1.29,9.82.71,3.98,2.01,11.17,2.41,10.83,2.36-2.03,4.76-4.97,6.71-9.23,3.31-7.23,7.1-14.31,9.1-24.1,1.17-5.72-1.41-16.75-1.11-25.03.33-8.98,1.66-18.16,3.25-26.12,1.63-8.16,5.45-14.37,5.89-22.49.6-11.12-1.1-23.23-1.78-34.93-.39-6.81-1.41-19.14-.95-19.62,4.16-4.32,8.58-6.64,12.94-9.36,1.09-.68,3.12-.12,3.21-1.12,1.93-23.9,7.26-13.45,11.94-10.06.58.42,1.8-.33,1.85-1.05.29-4,.37-8.16.38-12.26,0-1.15-.48-2.31-.74-3.47.41.68,1.06,2.2,1.19,1.9.87-2.06,1.59-4.64,2.46-6.75.46-1.12,1.1-1.64,1.65-2.44.03.64.1,1.29.09,1.92-.12,8.61-.21,17.23-.45,25.82-.03,1-.88,1.81-1.35,2.71.54.63,1.26,2.23,1.59,1.73,5.26-7.85,10.55-15.63,15.69-24.12,8.44-13.95,16.74-28.56,25.18-42.53,2.33-3.86,4.84-7.82,7.43-9.29,6.86-3.9,13.8-6.84,20.75-9.29,1.88-.66,3.88,2.19,5.84,2.57.75.14,1.55-2.16,2.33-3.35-.44-.76-.92-1.37-1.29-2.35-.19-.5-.25-2.38-.2-2.45,1.63-1.92,3.26-3.81,4.93-5.36.31-.29.79.86,1.19,1.35-.28.97-.65,1.83-.83,2.93-.3,1.87-.47,3.89-.7,5.84,1.76-.43,3.54-1.51,5.28-1.12,2.03.46,4.06,3.48,6.03,3.13,3.29-.58,6.54-2.95,9.81-4.57-.08-1.15-.03-2.83-.27-3.3-.28-.54-.84-.23-1.24.08-1.97,1.52-3.91,3.39-5.9,4.48-.26.14-.84-3.42-1.13-5.44-.05-.36.58-2.03.96-2.3,6.64-4.55,13.28-9.29,19.96-13.28,2.63-1.57,5.4-1.3,8.09-2.16.32-.1.54-2.11.85-3.11,1.09-3.5,2.2-6.95,3.3-10.42-.34,2.85-.68,5.69-1.01,8.53,1.39-1.33,2.78-2.66,4.18-3.99-1.07-1.47-2.14-2.94-3.21-4.41ZM141.43,194.42c-.44-1.57-1.07-2.97-1.27-4.76-.25-2.25,0-4.96-.27-7.18-.12-1.01-1.06-2.17-1.47-1.81-2.89,2.53-5.75,5.42-8.61,8.22-.52.51-1.02,1.16-1.52,1.75.55,1,1.08,2.1,1.65,2.96.44.65.93.99,1.4,1.47-1.4,1.07-2.79,2.16-4.19,3.09-.04.03-.28-1.58-.31-2.45-.06-1.92-.04-3.87-.05-5.8-1.07,1.44-2.95,2.41-3.09,4.39-1.28,18.08-5.53,10.46-9.09,9.22-.52-.18-1.08.45-1.61.91-.16.14-.25.93-.38,1.42.24.24.48.42.7.72.46.6.91,1.27,1.37,1.91-.48,1.46-1.27,4.37-1.39,4.16-.93-1.63-2.01-6.07-2.53-5.54-3.15,3.24-6.17,7.55-9.22,11.63-.09.13.04,1.65.07,2.52,2.08-1.3,4.17-2.54,6.24-3.97.48-.33.88-1.78,1.36-1.99,9.44-4.22,18.89-8.35,28.34-12.44,2.35-1.02,4.71-1.87,7.07-2.8-1.08-1.91-2.16-3.82-3.24-5.76,2.46-.97,4.93-1.82,7.39-2.95,1.78-.82,3.52-2.29,5.3-2.93,1.11-.4,2.27.35,3.4.31.5-.02,1-.74,1.5-1.13-1.6-1.71-3.21-3.36-4.79-5.17-.92-1.05-1.79-2.36-2.69-3.56.17-.91.32-2.56.53-2.63,2.99-.91,6.07-.68,8.97-2.62,2.77-1.86,5.4-5.68,8-9.19.89-1.2,1.46-4.25,2.27-6.07.21-.46.82.56,1.25.9l-.78,5.25c.86.17,1.72.33,2.59.5-.59-3.69-1.05-10.25-1.79-10.51-1.98-.7-4.08,1.28-6.12,2.31-.07.03-.17,1.48-.07,1.96.2.97.52,1.72.79,2.57-1.04-.06-2.09-.48-3.11-.1-1.5.56-2.98,1.57-4.46,2.6-.75.52-1.45,1.67-2.21,2.23-2.81,2.07-5.63,3.99-8.43,6.11-.12.09,0,1.95-.17,2.6-1.12,4.19-2.23,8.45-3.52,12.17-.15.43-1.43-2.25-2.16-3.62-.07-.14.06-1.18.1-1.8.5.8,1.09,2.52,1.5,2.22.97-.71,1.89-2.2,2.74-3.77.2-.36.2-3.06.01-3.38-.69-1.18-2.09-2.82-2.16-2.5-1.37,6.64-2.59,13.52-3.84,20.35ZM373.72,91.36l-.13,2.26c-2.88-1.1-5.76-2.17-8.63-3.36-.36-.15-.68-.96-1.03-1.46.32-.62.62-1.53.97-1.81,2.01-1.58,4.04-2.86,6.03-4.58.45-.39.75-2.11,1.12-3.22-.52-.52-1.12-1.78-1.55-1.43-2.11,1.68-4.21,5.69-6.24,5.37-4.46-.71-8.86-3.79-13.31-5.35-1.26-.44-2.6,1.01-3.91,1.59.81,1.56,1.64,3.07,2.43,4.71.15.31.26,1.62.24,1.64-.38.55-.79.92-1.17,1.46-.59.83-1.29,1.46-1.68,2.8-.16.55.25,3.55.6,3.94.53.59,1.24-.1,1.87-.33.39-.15,1.05-.97,1.13-.62.57,2.39,1.01,5.02,1.5,7.57.19-4.92.37-9.84.57-14.75.03-.79.14-2.2.24-2.22.86-.19,1.72-.12,2.58-.13-.03.52-.04,1.06-.1,1.56-.39,3.62-1.44,9.56-1.06,10.42,1.26,2.86,3.03,5.41,4.59,5.33,4.83-.24,9.66-1.66,14.48-2.82,2.49-.6,4.98-1.61,7.46-2.43-2.34-1.38-4.67-2.76-7.01-4.14ZM188.74,139.16c1.56-2.05,4.12-6.84,6.92-8.73,3.48-2.36,7.19-1.97,10.75-3.55.92-.41,1.67-3.75,2.5-5.74-.85-.85-1.74-2.61-2.56-2.4-9.44,2.48-18.88,5.11-28.3,8.19-.85.28-1.56,3.95-2.3,6.14-.01.04.37,1.74.61,1.83,3.59,1.32,7.19,2.51,12.38,4.26ZM258.23,216.23c-.06-.73-.11-1.46-.17-2.19-1.34,1.26-2.69,2.52-4.03,3.78,1.1.74,2.29.96,3.25,2.42.62.94.78,4.1,1.36,5.57.76,1.94,1.74,3.2,2.63,4.75.29-1.5.45-3.5.89-4.41,1.23-2.55,2.58-4.65,3.89-6.92.56,3.07.98,8.48,1.69,8.8,2.66,1.22,5.41,1.03,8.12.82,1.2-.09,2.39-1.48,3.58-2.28-1.51-1.91-3.03-3.82-4.54-5.75-.32-.41-.62-.89-.93-1.38-1.63-2.6-3.27-7.4-4.89-7.36-3.62.09-7.22,2.61-10.84,4.13ZM598.73,159.69c-.04-.64-.09-1.29-.13-1.93-1.38.73-2.76,1.46-4.14,2.19.27.39.53,1.08.81,1.12,5.79.89,11.59,2.11,17.38,2.32,1.89.07,3.8-2.49,5.7-3.84-1.55-2.81-3.2-8.38-4.62-7.93-5.04,1.58-10,5.21-14.99,8.07ZM279.01,101.4c2.11-4.8,3.58-8.38,5.14-11.58,1.34-2.75,2.8-5.06,4.19-7.61,0-.01-.16-.78-.24-1.19-.94,1.6-1.86,3.26-2.83,4.74-.28.43-.67.31-1,.49-4.22,2.37-8.43,4.74-12.65,7.12.14,1.46.19,4.05.43,4.2,2.71,1.7,5.44,3.03,6.96,3.83ZM176.15,279c-1.45-1.09-1.99-1.91-2.51-1.82-6.03,1.05-12.05,2.19-18.07,3.46-1.12.24-2.26.83-3.29,1.97-.33.37-.36,3.01-.52,4.62,4.34-.99,8.68-1.99,13.02-2.95.28-.06.59.02.85.32,1.08,1.29,2.31,4.38,3.18,3.68,1.77-1.41,3.32-4.9,4.99-7.4.44-.66.98-.8,2.37-1.87ZM332.25,85.08c.08-.51-.61,3.64-1.25,7.87-.08.52.16,2.05.25,2.04.59-.02,1.18-.28,1.77-.55,2.91-1.34,5.82-2.63,8.73-4.08,1.51-.75,3.01-1.68,4.49-2.88.12-.1.13-4.09-.1-4.39-1.81-2.32-3.69-4.18-5.55-6.18.27,2,.59,3.97.77,6.03.05.56-.31,2.03-.49,2.04-2.09.15-4.19.09-8.61.09ZM315.77,202.85c-2.12,1.42-4.16,2.79-6.21,4.16,1.52,3.97,2.83,9.69,4.62,11.43,1.83,1.78,4.12-.33,6.21-.83.11-.03.19-.95.29-1.46-1.46-.93-2.93-1.79-4.38-2.83-.44-.32-.84-1.13-1.25-1.72.51-1.26.97-2.7,1.53-3.75.54-1.02,1.18-1.64,1.77-2.43-.83-.82-1.66-1.64-2.59-2.56ZM207.1,129.58c-4.39,2.23-7.79,3.67-11.12,5.89-.71.47-1.18,3.83-1.76,5.87.55.37,1.14,1.3,1.65,1.03,2.88-1.52,5.74-3.36,8.61-5,1.39-.79,2.79-1.37,4.18-2.04-.6-2.2-1.19-4.39-1.56-5.75ZM430.36,228.34c.05-.85.1-1.71.15-2.56,1.35,1.5,2.76,2.71,4.02,4.67.38.59.36,3.27.52,4.99.55-1.4,1.09-2.8,1.64-4.19-2-2.71-3.92-6.92-6.01-7.73-2.25-.87-4.64,1.45-6.97,2.37l6.65,2.45ZM350.15,240.12c.53,1.5,1.06,3,1.6,4.49.77-2.27,1.55-4.54,2.32-6.81-1.43-.06-2.86.14-4.28-.25-1.45-.4-2.93-2.34-4.31-1.79-1.1.43-2.25,3.14-3.01,5.72-.39,1.31.04,4.56.1,6.94.44-.21.91-.19,1.31-.67,2.1-2.48,4.18-5.08,6.26-7.64ZM319.17,331.04c-2.58,1.14-4.36,1.92-6.14,2.71,3.14,1.79,6.27,3.76,9.43,5.16.41.18.99-2.52,1.49-3.89-1.8-1.5-3.6-2.99-4.77-3.97ZM337.15,76.13c5.03-1.23,9.51-2.3,13.98-3.45.38-.1.75-.75,1.12-1.14-.34-.75-.69-2.19-1.01-2.14-4.6.67-9.2,1.48-13.8,2.42-.76.15-1.49,1.1-2.24,1.68.8,1.09,1.6,2.17,1.94,2.64ZM292.19,102.58c2.19-2.13,4.8-4.68,7.42-7.22-2.61-.44-5.21-1.28-7.81-1.16-1.31.06-2.6,1.88-3.9,2.9,1.15,1.46,2.3,2.93,4.3,5.48ZM543.87,127.7c-2.03,2.98-1.6,2.35-1.17,1.72-.32-.6-.64-1.73-.95-1.71-3.83.26-7.67.41-11.5,1.22-1.21.26-2.37,2.39-3.56,3.66,1.62.74,3.28,2.55,4.85,2.01,3.26-1.13,6.46-3.51,12.33-6.9ZM464.79,391.19c3.88-.91,6.67-1.48,9.45-2.31.36-.11.68-1.56,1.01-2.39-.35-.64-.72-1.86-1.06-1.81-2.78.42-5.56.87-8.32,1.76-1.76.56-3.48,1.88-5.22,2.87,1.73.79,3.46,1.57,4.14,1.88ZM314.01,576.35h6.91c-2.79-2.42-5.56-5.17-8.4-6.95-.5-.31-1.31,3.44-1.97,5.32,1.77.84,3.54,1.68,3.46,1.64ZM392.79,197.74c.99-1.13,1.81-2.07,2.63-3.01-3.34-1.01-6.68-2.24-10.03-2.88-.77-.15-1.6,1.71-2.4,2.64,3.26,1.08,6.52,2.17,9.8,3.25ZM501.13,142.88c2.75-1.94,5.95-4.19,9.14-6.45-.4-.56-.84-1.74-1.2-1.58-3.87,1.73-7.72,3.68-11.58,5.57,1.01.69,2.03,1.37,3.64,2.46ZM236.05,220.31c-.67,1.34-1.43,2.89-2.2,4.44,1.73,2.93,3.45,5.86,5.18,8.79.44-3.71.88-7.42,1.32-11.14-1.33-.64-2.66-1.29-4.31-2.09ZM259.62,319c2.79-3.81,4.8-6.57,6.82-9.33-.84-1.84-2.12-5.73-2.44-5.17-1.68,2.96-3.14,6.97-4.61,10.82-.15.39.12,2.07.23,3.69ZM346,203.9c.91,4.1,1.37,6.2,1.84,8.31,1.42-3.81,2.84-7.62,4.25-11.43-1.08-.97-2.22-2.99-3.24-2.61-.91.33-1.71,3.3-2.85,5.74ZM387.65,284.79c-3.09-2.16-4.4-4.3-5.44-3.51-1.57,1.18-2.95,4.4-4.42,6.75,2.39-.18,4.78-.35,7.17-.57.24-.02.47-.44,2.69-2.67ZM255.61,251.53c-1,2.58-2.01,5.19-3.03,7.79.31.36.67,1.22.91,1.01,2.25-1.89,4.48-3.97,6.72-6-1.43-.87-2.86-1.75-4.61-2.81ZM469.65,213.4c-1.16,1.5-2.31,2.99-3.45,4.47.92,2.77,1.84,5.54,2.75,8.32-.12-2.05-.27-4.09-.33-6.16,0-.18.63-.65.98-.72.81-.15,1.63-.04,2.43-.29.09-.03.24-2.42.14-2.55-.75-1.1-1.55-1.93-2.53-3.07ZM288.13,337.06c-.57.86-1.16,1.75-1.74,2.63,1.14,2.02,2.24,5.33,3.44,5.68,1.03.3,2.17-2.81,3.27-4.41-1.62-1.27-3.23-2.54-4.97-3.9ZM423.42,192.36c.48-.98,1.01-2.07,1.54-3.16-1.16-1.38-2.31-3.68-3.5-3.87-1.27-.2-2.57,1.6-3.86,2.53,1.86,1.44,3.71,2.87,5.82,4.51ZM402.24,187.93c-1.63,1.86-2.73,3.12-3.84,4.39,2.09,1.48,4.17,3.07,6.27,4.32.25.14.63-1.62.95-2.5-1.13-2.08-2.27-4.15-3.38-6.2ZM295.47,209.41c-1.18-1.51-1.74-2.91-2.17-2.66-2.16,1.29-4.28,3.01-6.42,4.58,1.98.62,3.96,1.52,5.95,1.7.65.06,1.32-1.73,2.64-3.62ZM206.68,266.03c-1.2,1.26-2.46,2.59-3.73,3.93,1.27.83,2.56,2.48,3.8,2.25,1.15-.21,2.25-2.43,3.36-3.77-1.06-.74-2.12-1.48-3.44-2.41ZM218.59,270.35c1.63-2.55,2.45-3.82,3.26-5.1-1.85-.51-3.7-1.11-5.56-1.43-.26-.04-.55,1.3-.83,2,1.11,1.62,2.23,3.23,3.12,4.53ZM126.8,151.97c1.07-2.33,1.59-3.46,2.1-4.58-2.08-1.23-4.16-2.52-6.25-3.61-.24-.12-.54.84-.81,1.3,1.67,2.32,3.34,4.65,4.96,6.9ZM218.37,224.43c-1.31,1.99-2.26,3.44-3.22,4.88,1.43,1.08,2.84,2.43,4.3,3.08.41.18.93-1.7,1.39-2.63-.78-1.67-1.55-3.34-2.47-5.32ZM308.39,253.43c1.07-1.06,1.45-1.44,1.83-1.81-1.12-1.3-2.25-3.69-3.36-3.59-1.14.1-2.26,2.62-3.39,4.08,1.84.49,3.67.99,4.92,1.32ZM400.82,227.3c-1.88,1.71-3.67,3.33-5.45,4.95.6.65,1.23,2.07,1.78,1.83,1.94-.85,3.84-2.27,5.76-3.48-.65-1.02-1.3-2.04-2.09-3.29ZM170.52,384.02c1.45-3.16,2.49-5.42,3.53-7.68-.67-.88-1.41-2.75-1.98-2.4-.99.59-1.88,2.56-2.82,3.95.34,1.63.68,3.26,1.27,6.14ZM215.97,243.46c.87-1.96,1.69-3.82,2.51-5.68-1.37-1.19-2.72-3.01-4.11-3.22-.45-.07-.98,4.08-1.47,6.29.89.76,1.78,1.51,3.07,2.6ZM280.7,247.62c-.67,1.23-1.51,2.75-2.34,4.26.69,1.79,1.74,5.47,2,5.06,1.17-1.83,2.12-4.82,3.15-7.4-.78-.53-1.56-1.07-2.81-1.92ZM227.16,261.8c-.58-.66-1.17-1.32-1.75-1.98-.9,1.74-1.8,3.48-2.7,5.23.61.2,1.48-.24,1.79.74.47,1.51.57,3.98.83,6.05.61-3.35,1.22-6.69,1.84-10.04ZM416.53,202.04c-1.39-1.72-2.41-4.19-3.07-3.56-1.81,1.75-3.47,4.79-5.19,7.31,2.31-.7,4.62-1.39,6.93-2.14.25-.08.48-.57,1.33-1.62ZM394.43,68.77c1.25-1.38,2.32-2.57,3.39-3.75-1.07-.95-2.14-2.63-3.21-2.65-.98-.01-1.96,1.77-2.95,2.76.89,1.17,1.79,2.35,2.77,3.64ZM316.57,301.12c2.34-1.05,3.85-1.73,5.37-2.41-1.55-.93-3.08-2.46-4.64-2.6-1.09-.1-2.2,1.68-3.3,2.62,1.08,1,2.15,2,2.57,2.39ZM71.01,407.11c2.42-5.29,3.94-8.62,5.46-11.94-1.37.43-2.8.31-4.08,1.51-.74.69-1.34,3.35-1.78,5.49-.18.88.2,2.71.41,4.94ZM182.94,243.88c-2.21,3.32-3.39,5.08-4.56,6.83,1.58.46,3.15,1.01,4.73,1.3.24.04.75-1.34.71-1.71-.23-2.2-.58-4.29-.88-6.42ZM199.12,187.14c-2.17,1.36-4.14,2.61-6.12,3.85.39.71.82,2.14,1.18,2.01,2.12-.77,4.23-1.89,6.34-2.9-.46-.98-.92-1.96-1.39-2.96ZM325.47,236.98c-1.5,2.54-2.69,4.55-3.88,6.56,1.73.78,3.46,1.71,5.21,2.19.24.07.87-2.86.79-3.15-.53-1.82-1.2-3.28-2.12-5.6ZM445.49,197.8c-2.48-2.06-4.06-3.44-5.65-4.6-.19-.14-.48.87-.73,1.34,1.4,2.29,2.77,4.73,4.22,6.74.24.33.8-1.22,2.16-3.48ZM420.84,277.17c-1.02,1.33-1.78,2.3-2.53,3.28,1.82,1.22,3.64,2.51,5.48,3.55.2.11.49-1.18.74-1.82-1.22-1.65-2.44-3.31-3.69-5.01ZM517.92,125.06c1.96-1.56,3.73-2.96,5.49-4.36-.42-.51-.87-1.57-1.27-1.42-1.91.71-3.82,1.75-5.72,2.67.48,1.01.97,2.02,1.49,3.12ZM175.47,381.36c2.3-4.13,3.17-5.69,4.04-7.25-1.27-.92-2.53-2.02-3.83-2.61-.25-.11-.9,1.83-.87,2.68.09,2.5.43,4.93.65,7.18ZM383.39,230.52c-.49.92-.76,1.42-1.03,1.93.66,1.65,1.47,4.96,1.96,4.62,1.36-.92,2.6-3.38,3.88-5.23-1.6-.44-3.21-.88-4.81-1.32ZM337,212c-.7-1.21-1.33-3.19-1.83-2.96-1.2.55-2.33,2.13-3.5,3.3.83,1.76,1.67,4.91,2.5,4.88.87-.02,1.74-3.07,2.82-5.22ZM249.32,314.33c-1.92.36-3.14.59-4.35.83.21,1.32.48,3.83.63,3.78,1.85-.72,3.68-1.81,5.52-2.81-.81-.8-1.61-1.61-1.8-1.79ZM275.15,337.01c-.75,4.03-1.41,6.85-1.74,9.96-.06.61,1.53,3.71,1.73,3.28.83-1.78,1.47-4.39,2.04-6.94.07-.31-.65-2.07-2.03-6.3ZM392.16,279.94c-.91,1.41-1.77,2.74-2.63,4.08.4,1.06.9,3.21,1.19,3,1.4-1,2.73-2.63,4.09-4.04-.81-.92-1.61-1.85-2.65-3.04ZM195.79,267.81c-.68,1.13-1.15,1.92-1.62,2.71,1.08,1.91,2.1,4.33,3.27,5.47.43.42,1.22-2.18,1.85-3.41-1.18-1.6-2.35-3.21-3.51-4.78ZM249.16,236.91c.53-2.05,1.19-3.47,1.17-4.79-.03-1.9-.56-3.74-.88-5.6-.81,2.37-1.62,4.74-2.43,7.12.56.86,1.12,1.72,2.13,3.28ZM173,244.96c.37,2.77.65,4.87.93,6.98.6-1.8,1.71-3.69,1.68-5.37-.06-2.4-.96-4.64-1.49-6.95-.37,1.76-.73,3.52-1.11,5.35ZM305.93,207.54c-.86-1.43-1.66-2.9-1.68-2.79-.7,2.81-1.35,5.75-1.92,8.8-.04.24.8,2.18.82,2.11.87-2.36,1.7-4.87,2.79-8.12ZM409.86,225.02c-.84,1.64-1.41,2.75-1.98,3.86.79,2.87,1.59,5.74,2.38,8.61.31-2.71.77-5.39.86-8.16.04-1.16-.71-2.52-1.26-4.31ZM209.99,228.87c-1.65,1.85-3.17,3.56-4.68,5.26,1.45.23,2.9.8,4.33.52.55-.1,1.05-2.12,1.57-3.27-.38-.78-.75-1.55-1.22-2.52ZM147.81,288.95c-1.21-2.21-2.17-4.11-3.19-5.63-.15-.22-.63,1.32-.95,2.04.92,2.56,1.85,5.11,2.77,7.67.38-1.15.77-2.3,1.37-4.09ZM318.04,240.14c-.77,1.17-1.48,2.26-2.19,3.34.59,1.67,1.48,5.03,1.72,4.69.85-1.19,1.47-3.67,2.18-5.66-.51-.7-1.02-1.4-1.71-2.37ZM506.95,372.21c-.74,2.21-1.24,3.71-1.74,5.2.66,1.32,1.32,3.61,2,3.66.53.05,1.09-2.66,1.64-4.14-.55-1.36-1.09-2.72-1.9-4.73ZM201.88,371.47c1.32-1.81,2.47-3.38,3.62-4.95-.84-.95-1.71-2.82-2.5-2.56-.62.2-1.18,2.93-1.68,4.73-.08.27.32,1.6.56,2.78ZM39.08,283.94c1.61-2.12,3.19-4.2,4.77-6.28-.26-.58-.61-1.82-.76-1.65-1.63,1.84-3.24,3.91-4.85,5.91.22.52.43,1.05.84,2.02ZM489.5,295.59c-1.61-1.1-2.63-2.27-3.67-2.35-.68-.06-1.37,1.44-2.06,2.25,1.35,1.42,2.68,3.01,4.06,4.09.26.2.73-1.66,1.67-3.98ZM461.44,227.85c.88-2.16,1.73-4.23,2.55-6.38,0-.03-.34-1.46-.41-1.39-1.43,1.49-2.85,3.1-4.27,4.68.57.82,1.13,1.65,2.12,3.09ZM474.53,315.71c1.13-1.55,1.99-2.72,2.85-3.9-.52-1.57-1.21-4.69-1.53-4.4-.83.73-1.52,2.89-2.18,4.71-.05.15.49,2.08.86,3.59ZM274.6,261.35c.73-2.57,1.59-4.74,1.47-5.35-.45-2.26-1.21-4.01-1.86-5.95-.35,1.06-1.07,2.42-1,3.13.25,2.5.78,4.77,1.39,8.16ZM494.48,205.76c-1.16,1.55-2.16,2.89-3.16,4.23.46.7.96,2.13,1.37,1.94,1.17-.53,2.3-1.72,3.45-2.65-.5-1.07-1.01-2.13-1.66-3.52ZM364.06,234.24c-.87-.92-1.27-1.79-1.48-1.51-1.4,1.92-2.75,4.09-4.12,6.18.28.67.68,2.07.84,1.88,1.44-1.79,2.85-3.86,4.76-6.56ZM328.06,202.5c-.71-.44-1.29-1.36-1.67-.91-.65.77-1.52,2.2-1.63,3.75-.11,1.51.61,3.52.97,5.31.71-2.46,1.41-4.91,2.34-8.15ZM526.32,173.82c1.33-1.62,2.56-3.11,3.79-4.6-.35-.55-.76-1.74-1.05-1.54-1.38.91-2.72,2.2-4.08,3.35.41.85.81,1.69,1.34,2.79ZM301.6,341.88c.57-1.45,1.12-2.85,1.68-4.25-.88-.91-1.75-2.4-2.64-2.54-.57-.09-1.17,1.82-1.76,2.84.81,1.19,1.63,2.37,2.72,3.95ZM237.49,305.3c1.27-1.64,2.39-3.1,3.51-4.56-.29-.4-.62-1.25-.88-1.12-1.4.75-2.78,1.75-4.16,2.66.46.9.91,1.81,1.52,3.01Z"/>
      <path class="cls-1" d="M549.91,410.97c7.23,0,11.95,2.04,16.37-.42,9.5-5.3,18.83-13.09,28.27-19.44,2.3-1.55,4.73-1.47,7.1-2.07.18-.05.38.45.57.69-.49,1.04-.94,2.57-1.49,3.04-10.23,8.72-20.51,16.97-30.67,26.21-2.03,1.85-3.66,7.37-5.47,11.2,1.79-1.52,3.56-3.16,5.36-4.53,6.07-4.64,12.14-9.29,18.24-13.57.53-.37,1.29,2.04,1.94,3.16-.8.15-1.69-.32-2.38.54-4.06,5.07-7.94,11.78-12.15,15.42-6.16,5.33-12.56,8.54-18.85,12.66-4.32,2.83-8.6,6.77-12.98,8.29-9.76,3.38-19.57,6-29.38,7.91-2.51.49-5.11-2.92-7.69-4.17-.44-.21-.98,1.49-1.48,2.31.52.7,1.02,1.64,1.57,2.03.68.48,1.39.51,2.09.74-.79,1-1.57,2.17-2.38,2.94-.94.89-1.92,1.42-2.88,2.11.12,1.05.21,2.95.37,3.01.96.35,1.94.21,2.92.34,1.13.14,2.25.39,3.38.59-.39,1.54-.85,2.99-1.14,4.67-.09.54.26,2.48.4,2.47,4.82-.49,9.65-1.81,14.46-1.48,2.61.18,5.23,4.82,7.79,4.51,6.39-.78,12.75-3.28,19.13-4.96.58-.15,1.19.57,1.78.89-.48.58-.95,1.43-1.45,1.71-16.31,9.05-32.59,18.73-48.96,26.8-9.44,4.65-19.01,7.5-28.56,9.49-3.06.64-6.26-4.06-9.39-6.4-.14-.11-.21-1.01-.32-1.55.55-.62,1.09-1.56,1.66-1.81,7.55-3.23,15.12-6.05,22.64-9.79,1.54-.77,2.88-4.9,4.31-7.48-1.74-.15-3.51-.98-5.21-.33-10.84,4.14-21.65,8.68-32.49,12.86-1.17.45-2.42-.63-3.63-.99,1.18-1.14,2.51-1.61,3.5-3.55,2.26-4.46,4.11-11.25,6.56-14.04,2.41-2.75,5.38-2.81,8.05-2.12,4.85,1.25,9.63,4.25,14.48,5.79,1.24.4,2.59-1.94,3.9-3.02-1.66-4.89-3.18-10.26-5.03-14.46-.8-1.82-2.28-1.25-3.45-1.76,1.08-1.24,2.12-3,3.24-3.65,5.12-2.96,10.29-5.12,15.37-8.52,4.74-3.18,9.32-8.56,14.09-11.17,7.38-4.04,14.86-6.44,22.29-9.74,3.47-1.54,7.23-1.7,10.26-5.95,2.58-3.62,4.29-12.21,5.34-15.4ZM553.89,425.02c1.53-1.21,4.77-3.65,7.97-6.39.62-.53,1.11-2.24,1.66-3.4-.65-.54-1.33-1.74-1.94-1.51-4.9,1.8-9.79,3.84-14.68,5.94-.33.14-.6,1.37-.9,2.09.21.64.39,1.78.62,1.84,1.86.48,3.72.77,7.26,1.43ZM499.56,485.35c2.34-2.85,4.63-5.65,6.92-8.44-.27-.39-.57-1.24-.8-1.11-3.07,1.65-6.12,3.43-9.18,5.19.96,1.37,1.92,2.74,3.06,4.37ZM490.02,461.64c-.92,2.22-1.73,4.11-2.48,6.2-.04.11.62,2.82.72,2.71,1.25-1.44,2.46-3.19,3.68-4.86-.51-1.09-1.03-2.17-1.92-4.05Z"/>
      <path class="cls-1" d="M522.26,5.79c7.48-1.93,14.96-3.86,22.44-5.75.37-.09.83-.07,1.09.49.17.36.22,2.15.07,2.64-.22.7-.67,1.01-1.03,1.13-1.03.34-2.22-.34-3.07.92-1.19,1.76-2.12,4.91-3.16,7.46,1.02-.05,2.04-.23,3.05-.12.67.07,1.34.52,2.01.81-.35,1.69-.74,3.32-1.04,5.07-5.01,29.44-14.96,6.11-21.77,16.48-1.23,1.87-2.73,2.3-4.11,3.4.7,3.28,1.34,6.68,2.13,9.76.28,1.07.93,1.35,1.42,1.99-1.66.63-3.32,1.75-4.98,1.67-.8-.04-1.61-2.21-2.36-3.64-1.77-3.37-3.41-9.33-5.27-9.9-8.54-2.59-17.13-3.6-25.7-5.42-.82-.17-1.59-2-2.39-3.06.8-1.35,1.54-3.51,2.39-3.91,8.63-4.01,17.29-7.32,25.9-11.7,4.8-2.44,9.5-6.52,14.25-9.86.05.51.09,1.02.14,1.53Z"/>
      <path class="cls-1" d="M95.37,692.3c-3.48-1.62-6.85-4.73-10.18-4.39-6.1.62-12.17,4.48-18.26,4.75-5.52.24-11.07-2.32-16.58-4.22-.61-.21-1.63-5.71-1.48-6.15.98-2.96,2.18-7.22,3.39-7.42,19.18-3.09,38.38-5.57,57.57-8.44,1.17-.17,2.27-2.75,3.46-3.56,1.27-.87,2.6-.96,3.91-1.39-.5,1.58-1.06,3.07-1.49,4.8-.19.75-.12,2.03-.16,3.06.8-.03,1.61-.03,2.41-.08,1.9-.13,3.8-.3,5.7-.38.07,0,.15.71.22,1.09-1.52,1.46-3.02,3.17-4.57,4.35-7.93,6.03-15.86,11.93-23.94,17.98Z"/>
      <path class="cls-1" d="M31.83,634.33c2.86,1.99,7,4.89,11.15,7.71.48.32,1.29.74,1.46.09,5.88-22.75,14.19-9.03,21.19-9.53,4.07-.29,8.25,11.61,12.37,18.07.4.62.71,2.12,1.1,2.26,1.46.53,2.95.66,4.42.94-1.59,1.18-3.18,2.32-4.77,3.54-9.53,7.32-18.88,15.36-28.06-5.01-1.75-3.88-5.81,1.12-8.8,1.2-1.66.04-3.36-1.22-4.97-2.62-3.75-3.28-7.47-6.95-11.17-10.64-.49-.49-.86-2.03-1.29-3.09,1.95-.78,3.91-1.55,7.35-2.92Z"/>
      <path class="cls-1" d="M530.61,37.13c5.56.91,9.87,1.98,14.18,2.09,1.22.03,3.25-2.1,3.48-4.39.36-3.69-.43-8.35-.81-12.55-.09-1-.47-1.8-.71-2.69.43.2.91.12,1.28.64,3.4,4.84,6.71,10.34,10.22,14.49,1.82,2.16,3.97,2.05,5.98,2.89,1.32.55,2.64.94,3.96,1.4-1.31.98-2.6,2.34-3.93,2.87-3.01,1.21-6.03,2.15-9.06,2.85-.57.13-1.19-1.38-1.79-2.13.46-.19.94-.21,1.38-.62.33-.3.6-1.1.89-1.68-.96-1.4-1.88-3.51-2.9-4.01-.97-.48-2.23-.11-3.03,1.34-1.02,1.85-1.61,7.12-2.56,7.54-5.49,2.41-11.02,4.8-16.55,4.99-1.68.06-3.39-6.89-5.09-10.62,2.09-1.01,4.18-2.01,5.07-2.44Z"/>
      <path class="cls-1" d="M380.16,7.99c3.31.54,6.62,1.06,9.92,1.68.27.05.53.75.79,1.15-.35.45-.69,1.23-1.05,1.31-10.42,2.1-20.84,4.17-31.27,6.05-.47.08-.99-1.74-1.48-2.67.28-.59.53-1.6.83-1.7,7.39-2.64,14.78-5.18,22.18-7.74.02.65.05,1.29.07,1.94Z"/>
      <path class="cls-1" d="M566.19,137.61c-.79-.24-1.88-.57-2.97-.89.59-.84,1.19-1.61,1.74-2.6.08-.14-.09-2.07-.18-2.09-1.58-.4-3.17-.9-4.75-.83-1.83.09-3.65.72-5.48,1.11,1.22-1.96,2.42-4.06,3.68-5.79.37-.5.92.2,1.38.12,5.66-1.09,11.33-2.24,16.99-3.34.66-.13,1.33-.05,1.99-.07-.55.78-1.09,1.67-1.66,2.31-3.48,3.94-6.96,7.82-10.76,12.08Z"/>
      <path class="cls-1" d="M350.93,493.73c.32.4,1.97,2.47,3.62,4.53-1.79.76-3.63,1.03-5.36,2.42-1.66,1.34-3.32,6.02-4.77,5.39-3.04-1.32-5.95-5.16-8.92-7.96.28-.67.54-1.86.83-1.92,4.37-.83,8.74-1.51,14.6-2.47Z"/>
      <path class="cls-1" d="M349.34,19.24c-.48.24-.72.42-.96.46-6.98,1.39-13.96,2.79-20.95,4.07-.31.06-.64-.99-.96-1.53.57-1.94,1.15-5.59,1.71-5.57,6.86.3,13.72,1.13,20.58,1.84.11.01.21.25.58.72Z"/>
      <path class="cls-1" d="M526.01,540.25c10.59-6.78,21.17-13.57,31.76-20.31.16-.1.36.37.54.57-.29.73-.54,1.86-.88,2.13-9.11,7.41-18.21,14.99-27.38,21.75-1.16.85-2.71-2.68-4.08-4.18,0,0,.04.05.04.05Z"/>
      <path class="cls-1" d="M364.41,531.74c-1.64,0-3.27-.08-4.91.07-.34.03-.94.81-.97,1.4-.06,1.38,0,3.75.29,4.14,1.03,1.43,2.16,2.2,3.26,3.23-2.5,1.22-5,3.12-7.52,3.35-1.25.11-2.54-2.85-3.82-4.42,1.53-1.78,3.01-4.36,4.6-5.18,3.93-2.02,7.91-3.36,11.88-4.69.97-.33,1.98.43,2.98.69-1.18.39-2.35.87-3.53,1.14-.75.17-1.52.03-2.28.03,0,.08,0,.15,0,.23Z"/>
      <path class="cls-1" d="M587.78,379.91c5.34-4.95,8.15-7.62,10.97-10.09.62-.54,1.31-.34,1.97-.49-.53,3.33-.81,8.91-1.62,9.6-3.23,2.79-6.6,4.22-9.95,5.63-.33.14-1.23-3.48-1.17-5.18.07-2.33.8-4.5-.2.52Z"/>
      <path class="cls-1" d="M425.56,571.7c-2.93.96-6.04,4-8.75,2.23-2.12-1.39-3.76-8.75-5.62-13.46.85.28,1.76.1,2.54.94,1.02,1.1,1.9,4.09,2.91,4.38,4.69,1.32,9.41,1.94,14.11,2.94.9.19,1.78.92,2.67,1.4-.97.93-1.92,2.39-2.91,2.66-1.62.45-3.27.12-4.91.12l-.04-1.21Z"/>
      <path class="cls-1" d="M36.82,158.44c2.01,4.37,3.72,8.09,5.42,11.8-.71.92-1.48,2.85-2.12,2.57-3.25-1.41-6.47-3.39-9.69-5.17,1.92-2.77,3.84-5.53,6.39-9.2Z"/>
      <path class="cls-1" d="M42.16,602.67c-3.83-3.42-8.11-7.2-12.38-11.13-.31-.28-.5-1.57-.74-2.39.27-.06.55-.25.81-.15,4.38,1.7,8.77,3.24,13.14,5.29,1.3.61,2.52,2.67,3.77,4.07-1.26,1.19-2.53,2.37-4.59,4.31Z"/>
      <path class="cls-1" d="M525.97,540.21c-5.26.85-10.52,1.77-15.78,2.4-.34.04-.72-2.18-1.08-3.35,1.55-.2,3.09-.67,4.64-.54,4.08.36,8.16.99,12.25,1.53,0,0-.03-.04-.03-.04Z"/>
      <path class="cls-1" d="M670.61,267.74c-.67.97-.98,1.6-1.32,1.86-6.81,5.25-13.63,10.47-20.45,15.64-.35.26-.75.02-1.12.01.12-.52.2-1.37.36-1.52,6.87-6.15,13.75-12.28,20.65-18.19.41-.35,1.01,1.13,1.87,2.19Z"/>
      <path class="cls-1" d="M564.48,91.24c.44.07,1.94.31,3.45.55-1.56,1.35-3.08,3.18-4.68,3.94-3.81,1.82-7.65,3.19-11.48,4.57-.29.11-.65-1.15-.97-1.78.39-1.02.74-2.77,1.16-2.94,3.81-1.49,7.63-2.7,12.52-4.35Z"/>
      <path class="cls-1" d="M496.14,53.21c.54-3.56.89-5.87,1.24-8.18,2.24,2.98,4.47,5.96,6.71,8.94-2.09,1.6-4.16,3.56-6.29,4.51-.44.2-1.08-3.34-1.67-5.28Z"/>
      <path class="cls-1" d="M541.33,104.59c-2.93,0-5.85,0-8.76,0,3.63-2.71,7.24-5.74,10.92-7.91.93-.55,2.07,1.61,3.11,2.53-1.73,1.77-3.46,3.54-5.27,5.39Z"/>
      <path class="cls-1" d="M634.91,283.97c-.15-.09-.42-.25-.69-.4.26-.24.52-.51.79-.71,6.35-4.6,12.7-9.21,19.06-13.78.44-.32.91-.41,1.36-.61-.43.77-.83,1.91-1.3,2.24-6.36,4.45-12.73,8.8-19.22,13.25Z"/>
      <path class="cls-1" d="M607.7,387.59c-.53-1.57-.88-2.62-1.23-3.67,3.52-3.84,7.03-7.7,10.56-11.41.11-.12.44,1.4.66,2.16-3.28,4.24-6.57,8.49-9.99,12.92Z"/>
      <path class="cls-1" d="M310.62,22.31c1.91.36,3.04.58,4.18.8-1.29,1.5-2.55,4.06-3.87,4.27-2.33.38-4.7-.65-7.05-1.09,2.48-1.46,4.96-2.92,6.74-3.97Z"/>
      <path class="cls-1" d="M49.76,667.21c-.93,4.11-1.73,7.68-2.54,11.26-.56-2-1.74-4.74-1.57-5.86.56-3.79,1.6-7.01,2.46-10.45.46,1.42.93,2.85,1.65,5.06Z"/>
      <path class="cls-1" d="M352.76,516.72c-1.83-1.35-3.34-2.48-4.86-3.6,1.47-.17,2.93-.37,4.4-.49.46-.04.93.22,1.39.21,1.98-.07,3.96-.2,5.94-.3-2.34,1.43-4.68,2.85-6.87,4.19Z"/>
      <path class="cls-1" d="M595.23,420.59c.63,1.2,1.13,2.15,1.63,3.1-.43.85-.85,2.33-1.3,2.43-2.63.59-5.27.86-7.91,1.24,2.49-2.22,4.99-4.45,7.59-6.76Z"/>
      <path class="cls-1" d="M470.02,567.36c-1.78-.65-3.31-1.21-4.84-1.77,2.92-1.09,5.84-2.35,8.78-3.17,1.03-.29,2.1.51,3.15.82-2.42,1.41-4.84,2.81-7.09,4.12Z"/>
      <path class="cls-1" d="M297.07,34.23c-.95-.74-1.43-1.12-1.92-1.5.31-.79.6-1.71.94-2.34.8-1.44,1.58-3.25,2.47-3.96.89-.71,1.9-.53,2.83-.14.24.1.36,2.48.53,3.81-1.73,1.47-3.46,2.94-4.85,4.12Z"/>
      <path class="cls-1" d="M433.36,48.29c3.41,2.7,6.76,5.36,10.11,8.02-.34.31-.72,1.06-1.02.86-3.54-2.32-7.08-4.77-10.61-7.19.5-.55.99-1.1,1.52-1.68Z"/>
      <path class="cls-1" d="M402.25,80.29c-.98,1.62-1.31,2.67-1.6,2.57-2.42-.83-4.82-1.87-7.24-2.84,1.09-1.9,2.22-5.53,3.26-5.32,1.7.35,3.34,3.19,5.58,5.59Z"/>
      <path class="cls-1" d="M320.01,69.2c-3.48,2.87-3.81,3.44-4.09,3.32-1.9-.85-3.8-1.9-5.7-2.78-1.86-.87-3.73-1.62-5.6-2.43.14-.36.29-1.04.43-1.02,3.93.72,7.85,1.5,14.96,2.91Z"/>
      <path class="cls-1" d="M611.08,360.83c-3.71,4.72-6.16,7.85-8.61,10.98-.08-.69-.27-1.92-.23-1.98,2.27-3.67,4.56-7.26,6.85-10.79.1-.16.31.26,1.99,1.8Z"/>
      <path class="cls-1" d="M424.88,61.45c-1.67-2.09-2.82-3.53-3.97-4.97.85.39,1.73,1.28,2.56,1.05.95-.27,1.86-1.65,2.81-2.32.6-.43,1.24-.44,1.86-.64-1.06,2.24-2.12,4.48-3.25,6.88Z"/>
      <path class="cls-1" d="M450.47,515.09c2.39,1.46,4.5,2.75,6.61,4.04-.56.54-1.14,1.6-1.69,1.54-2.79-.33-5.57-.96-8.35-1.48,1.18-1.4,2.35-2.8,3.43-4.09Z"/>
      <path class="cls-1" d="M576.15,32.64c-.77-2.91-1.28-4.84-1.79-6.77.43-.91.96-2.8,1.26-2.54,1,.92,1.92,2.59,2.87,3.98-.63,1.44-1.27,2.89-2.34,5.33Z"/>
      <path class="cls-1" d="M133.82,128.14c-2.81,1.09-4.63,1.8-6.46,2.51,2.15-2.42,4.29-4.88,6.46-7.14.09-.1.68,2.07.6,2.46-.32,1.57-.81,2.86-.6,2.17Z"/>
      <path class="cls-1" d="M492.72,554.94c1.21.72,2.04,1.22,2.86,1.71-.68,1.12-1.34,3.02-2.05,3.2-1.23.31-2.49-.44-3.73-.75,1.03-1.46,2.06-2.93,2.92-4.16Z"/>
      <path class="cls-1" d="M461.79,103.86c-4.46,2.01-7.39,3.35-10.33,4.63-.18.08-.38-.35-.57-.54,2.7-1.72,5.4-3.49,8.11-5.11.38-.23.82.27,2.79,1.02Z"/>
      <path class="cls-1" d="M256.84,48.98c-.97-1.13-1.67-1.94-2.37-2.75.82-.72,1.63-1.91,2.46-2.06,1.33-.25,2.68.18,4.02.32-1.38,1.51-2.77,3.02-4.11,4.49Z"/>
      <path class="cls-1" d="M563.79,459.29c-.22-.58-.51-1.35-.81-2.11,2.42-2.42,4.83-4.87,7.25-7.19.19-.18.5.66.75,1.02-2.32,2.67-4.65,5.35-7.2,8.28Z"/>
      <path class="cls-1" d="M402.15,11.56c-.76-.26-2.09-.73-3.42-1.19,1.16-.85,2.33-2.47,3.47-2.37,1.57.14,3.12,1.6,4.68,2.5-1.38.31-2.76.62-4.74,1.06Z"/>
      <path class="cls-1" d="M144.41,662.9c-.07-.73-.19-1.96-.31-3.19,1.71-1.2,3.42-2.46,5.14-3.54.22-.14.52.65.79,1.01-1.63,1.66-3.25,3.31-5.61,5.72Z"/>
      <path class="cls-1" d="M588.5,28.34c-.8-.93-1.84-2.14-2.87-3.35.28-.31.57-.98.83-.87,1.75.76,3.5,1.68,5.25,2.55-.93.49-1.87.97-3.21,1.67Z"/>
      <path class="cls-1" d="M11.05,450.6c-.78-1.21-1.28-1.96-1.77-2.72,1.22-1.31,2.42-2.81,3.66-3.81.29-.24.75,1.21,1.14,1.88-1.01,1.55-2.01,3.09-3.03,4.65Z"/>
      <path class="cls-1" d="M470.03,36.22c-.73-.7-1.36-1.3-1.98-1.9,1.69-1.28,3.36-2.79,5.08-3.7.52-.28,1.16,1.08,1.74,1.7-1.61,1.3-3.22,2.6-4.83,3.9Z"/>
      <path class="cls-1" d="M395.04,535.76c.23.3-.76-1.01-1.75-2.33,2.34.33,4.69.66,7.03.99-.42.45-.82,1.18-1.25,1.28-.87.2-1.74.06-4.03.06Z"/>
      <path class="cls-1" d="M458.58,449.45c-1.7-.38-3.23-.72-4.77-1.06,2.6-.54,5.19-1.17,7.79-1.55.63-.09,1.27.69,1.9,1.06-1.69.53-3.39,1.06-4.93,1.54Z"/>
      <path class="cls-1" d="M592.94,278.97c-.62-.66-1.02-1.09-1.42-1.53,1.15-1.16,2.28-2.7,3.46-3.33.7-.37,1.5.71,2.25,1.14-1.46,1.26-2.92,2.53-4.3,3.72Z"/>
    </g>
  </g>
</svg>