<?xml version="1.0" encoding="UTF-8"?>
<svg id="Layer_2" xmlns="http://www.w3.org/2000/svg" viewBox="0 0 167.91 152">
  <defs>
    <style>
      .cls-1 {
        fill: #aaa;
      }

      .cls-2 {
        fill: #c9c9c9;
      }

      .cls-3 {
        fill: #f4f4f5;
      }

      .cls-4 {
        fill: #d8d8d8;
      }

      .cls-5 {
        fill: #bdbdbd;
      }

      .cls-6 {
        fill: #b6b6b6;
      }

      .cls-7 {
        fill: #c3c3c3;
      }

      .cls-8 {
        fill: #b4b4b4;
      }

      .cls-9 {
        fill: #dadada;
      }

      .cls-10 {
        fill: #f2f2f2;
      }

      .cls-11 {
        fill: #d9d9d9;
      }

      .cls-12 {
        fill: #2b2b2b;
      }

      .cls-13 {
        fill: #eee;
      }

      .cls-14 {
        fill: #a7a7a7;
      }

      .cls-15 {
        fill: #f0f0f0;
      }

      .cls-16 {
        fill: #a3a3a3;
      }

      .cls-17 {
        fill: #c5c5c5;
      }

      .cls-18 {
        fill: #a9a9a9;
      }

      .cls-19 {
        fill: #cbcbcb;
      }

      .cls-20 {
        fill: #b1b1b1;
      }

      .cls-21 {
        fill: #b9b9b9;
      }

      .cls-22 {
        fill: #f3f3f3;
      }

      .cls-23 {
        fill: #e2e2e2;
      }

      .cls-24 {
        fill: #3d3d3d;
      }

      .cls-25 {
        fill: #dedede;
      }

      .cls-26 {
        fill: #bcbcbc;
      }

      .cls-27 {
        fill: #dfdfdf;
      }

      .cls-28 {
        fill: #e0e0e0;
      }

      .cls-29 {
        fill: #d5d5d5;
      }

      .cls-30 {
        fill: #c4c4c4;
      }

      .cls-31 {
        fill: #ddd;
      }

      .cls-32 {
        fill: #b5b5b5;
      }

      .cls-33 {
        fill: #cdcdcd;
      }

      .cls-34 {
        fill: #bababa;
      }

      .cls-35 {
        fill: #afafaf;
      }

      .cls-36 {
        fill: silver;
      }

      .cls-37 {
        fill: #cecece;
      }

      .cls-38 {
        fill: #282828;
      }

      .cls-39 {
        fill: #d3d3d3;
      }

      .cls-40 {
        fill: #adadad;
      }

      .cls-41 {
        fill: #c7c7c7;
      }

      .cls-42 {
        fill: #aeaeae;
      }

      .cls-43 {
        fill: #eaeaea;
      }

      .cls-44 {
        fill: #b8b8b8;
      }

      .cls-45 {
        fill: #c2c2c2;
      }

      .cls-46 {
        fill: #242424;
      }

      .cls-47 {
        fill: #e5e5e5;
      }

      .cls-48 {
        fill: #a5a5a5;
      }

      .cls-49 {
        fill: #b3b3b3;
      }

      .cls-50 {
        fill: #e7e7e7;
      }

      .cls-51 {
        fill: #a4a4a4;
      }

      .cls-52 {
        fill: #a8a8a8;
      }

      .cls-53 {
        fill: #bebebe;
      }

      .cls-54 {
        fill: #e9e9e9;
      }

      .cls-55 {
        fill: #ececec;
      }

      .cls-56 {
        fill: #efefef;
      }

      .cls-57 {
        fill: #dbdbdb;
      }

      .cls-58 {
        fill: #e4e4e4;
      }

      .cls-59 {
        fill: #ebebeb;
      }

      .cls-60 {
        fill: #dcdcdc;
      }

      .cls-61 {
        fill: #c8c8c8;
      }

      .cls-62 {
        fill: #e3e3e3;
      }

      .cls-63 {
        fill: #ededed;
      }

      .cls-64 {
        fill: #d2d2d2;
      }

      .cls-65 {
        fill: #d1d1d1;
      }

      .cls-66 {
        fill: #b0b0b0;
      }

      .cls-67 {
        fill: #d6d6d6;
      }

      .cls-68 {
        fill: #f5f5f5;
      }

      .cls-69 {
        fill: #e6e6e6;
      }

      .cls-70 {
        fill: #b2b2b2;
      }

      .cls-71 {
        fill: #cacaca;
      }

      .cls-72 {
        fill: #5c5c5c;
      }

      .cls-73 {
        fill: #acacac;
      }

      .cls-74 {
        fill: #bbb;
      }

      .cls-75 {
        fill: #c6c6c6;
      }

      .cls-76 {
        fill: #c1c1c1;
      }

      .cls-77 {
        fill: #d7d7d7;
      }

      .cls-78 {
        fill: #cfcfcf;
      }

      .cls-79 {
        fill: #d0d0d0;
      }

      .cls-80 {
        fill: #e8e8e8;
      }

      .cls-81 {
        fill: #bfbfbf;
      }

      .cls-82 {
        fill: #f1f1f1;
      }

      .cls-83 {
        fill: #b7b7b7;
      }

      .cls-84 {
        fill: #161616;
      }

      .cls-85 {
        fill: #d4d4d4;
      }

      .cls-86 {
        fill: #e1e1e1;
      }
    </style>
  </defs>
  <g id="Layer_1-2" data-name="Layer_1">
    <g>
      <path class="cls-16" d="M39.85,132.02c-2.23-.61-4.49-1.12-6.67-1.86-1.55-.53-7.56,1.63-2.33-3.49-2.77-2.38-6.03-4.27-7.73-7.62.74-.58,2.19-1.36,2.09-1.7-1-3.01-1.94-6.22-4.34-8.43,0,0,.02.02.02.02-1.66.65-3.31,1.3-4.97,1.95,0,0,0-.01,0-.01-.02-.71-.03-1.41-.05-2.12.47-.17.13-.4,0-.7.03-.32.06-.63.09-.95,1.95-.18,3.9-.35,5.85-.35,0-.56,0-1.12,0-1.68l-3.89-.18s-.12-.31-.11-.31c-.66-.21-1.31-.42-1.97-.63,0,0,0,.03,0,.03.01-.36.02-.72.03-1.08,1.67-.36,3.33-.71,5-1.07.7-1.29,1.4-2.57,2.1-3.86,1.06-.23,2.13-.45,3.19-.68-1.09-1.48-2.18-2.95-3.26-4.42,0-.32,0-.64,0-.95,1.16-1.12,2.49-2.05,3.75-3.06-1.47-3.47-4.52-5.35-7.79-6.95,0,0,.08.03.08.03-2.74-1.18-5.63-2.17-8.03-3.98.99-1,1.97-2,2.96-3-.33-.67-.66-1.34-1-2.02-.78-.11-1.41-.47-2.01-.97-2.2.97-3.92,2.68-5.96,3.95-.01.65-.02,1.31-.03,1.96-5.15-1.75-6.38-6.36-2.91-10.9,4.2-1.83,6.74-5.08,9-8.95.34-.06.68-.12,1.02-.18.9.64,1.79,1.28,2.69,1.91,1.41-.31,2.78-1.09,4.25-.87,3.63,3.35,8.29,1.52,9.67-2.99,0,0,.31.07.31.07l1.03-1.03c-.71-.74-1.5-1.37-2.36-1.93-.3-.95-.61-1.9-.91-2.84,1.18-.64,2.38-1.23,3.36-2.16-.71-1.76-.79-3.79-2.08-5.24-1.74-3.92-.81-7.12,3.92-6,1.35,1.38,2.69,2.75,4.04,4.13-.01,2.43-.12,4.86-.17,7.29.72,1.28,1.45,2.56,2.17,3.84.67-.33,1.33-.66,2-1,.3.03.6.07.9.12.91,2.23,3.22,3.56,5.08,4.98l.04-1.28c-2.07-1.66-3.87-3.48-5.05-5.89-.3-.16-.58-.14-.86.06-.08.64-.09,1.28-.23,1.91-.18-.03-.36-.04-.54-.04-1.33-2.95-3.69-5.59-3.4-8.98,1.04-.02,2.08-.04,3.12-.07.26.16.54.29.82.41.01.24.04.48.09.71.32.34.64.67.96,1.01.02.34.04.67.06,1.01.32.32.63.63.95.95.68.14,1.35.13,2.04.02,0-.32,0-.64-.02-.95l-.9-1.06c-.43-2.35-1.74-4.62-1.01-7.11.31.05.61.11.92.17,0,0-.02-.01-.02-.01-.2,2.26,1.83,3.78,2.05,5.91.33.03.66.06.99.1-.35-3.36-1.66-6.63-.94-10.04,2.35.3,4.54-.3,6.77-.96-.73-.06-1.25-.58-1.85-.97,0,0,.14-.17.14-.17,1.35-1.95,3.75-2.08,5.92-1.83.97-1.36,1.95-2.73,2.92-4.09.36.01.72.03,1.08.04,1.65-1.02,3.3-2.04,4.95-3.05.94.27,1.89.17,2.84.12.45-1.38.9-2.75,1.35-4.13-.38-.34-.75-.69-1.13-1.03,0-.31,0-.63,0-.94,1,.01,2-.15,3,.01.3.38.6.76.91,1.14.74.24,1.48.47,2.21.71-.43-.6-.86-1.21-1.3-1.81-.62,0-1.25,0-1.87.01-.36-.68-.71-1.35-1.07-2.03-1.31.1-2.62-.01-3.93-.03-.33-.35-.66-.7-.99-1.04-2.34.06-4.68.06-7.02.05-.02-1.67-.04-3.34-.06-5.01.35.02.71.03,1.06.05l-.02-.02c.9.14,1.73-.3,2.04-1.17,3.76.39,7.29,1.6,10.85,2.24-.98,2.22-.64,3.73,2.12,3.93.34.66.68,1.33,1.01,1.99,4.39.9,9.27.26,12.98,3h0c4.68.06,9.34.71,14.01.97,0-.37,0-.75.01-1.12,1.82-1.83,4.17-3.01,5.96-4.84.03-.98.06-1.96.09-2.94,0,0-.08-.06-.08-.06.34-.67.69-1.34,1.03-2.01,4.68.11,7.98,3.92,12.06,5.85,1.29-.26,2.58-.51,3.87-.77l-.03-.06c0,.33.02.65.06.98,1.66,1.34,3.33,2.67,4.99,4.01,5.39,1.67,9.95,5.31,14.91,7.99.35.69.7,1.38,1.05,2.07,0,0-.02-.03-.02-.03.69.35,1.38.69,2.07,1.04,0,0-.08.03-.08.03,4.73,3.19,10.6,4.68,15.12,7.94.08,1.63,0,3.28.04,4.91.89-1.13,2.45-2.25,3.94-1.94.35.32.69.64,1.04.96,0,0,.01-.09.01-.09-.01.71-.03,1.43-.04,2.14-.31.11-.71.71-1.1.91-.97-.03-1.97.06-2.93-.03-.36-.29-.72-.59-1.08-.88-.3.31-.61.62-.91.93.35.98.71,1.96,1.06,2.94.23.02.68.02.9,0,1.84,2.11,2.38,3.97-.99,5.06-1.99-.62-3.99-1.21-6-1.78-.12.06-.24.11-.36.17.47.89,1.52,1.2,2.3,1.78-1.28,1.03-1.98,2.54-2.92,3.85,1.63.66,3.26,1.32,4.89,1.98-.1.67-.19,1.34-.29,2.02.17,1.66-5.75.76-1.7,4.06,0,0-.16-.03-.16-.03-2.9,1.33-5.82,1.96-4.7,5.92.82,3.89-2.61,2.15-4.05,3.05-.91.75-1.91,1.37-2.91,1.99-.49,2.25.87,4.11,2.07,5.91.59.01,1.18.02,1.77.03,3.45,3.65,6.26,7.65,10.75,10.2-.18.65-.37,1.3-.56,1.95.94,1.33,1.88,2.66,2.82,3.99,0,.29.03.59.06.88-1.48.39-2.95.78-4.43,1.17,1.15,1.27,2.31,2.54,3.46,3.8-.05.31-.11.63-.16.94-3.45.51-6.73,1.27-9.82,2.92-2.23-.94-5.15-.87-6.87-2.63-.12.23-.25.47-.37.7-3.91.46-8.35-.8-11.86,1.15,0,0,.1-.08.1-.08-.33.04-.67.07-1,.11-1.05-.66-2.07-1.35-3.05-2.12l.13-.04c-.15-.66-.17-1.31-.12-1.99.65-.3,1.31-.6,1.96-.89-.69-.65-1.39-1.3-2.08-1.95l-.06.02c1.44-1.03,1.98-2.72,2.8-4.22-2.83.42-4.56,2.18-6.71,3.81.03.4.06.79.09,1.19.66.37,1.31.75,1.97,1.12,0,0,.02-.02.02-.02-1.53,1.54-2.87,3.31-4.99,4.03h0c-.46.83.59,1.43,1.01,2.04l-.03-.03c2.29,3.98,5.84,8.56,11.1,5.08,0,0,0,0,0,0,.19,0,.56,0,.75-.01.08.25.16.5.25.75.64-.28,1.28-.56,1.92-.84,0-.67,0-1.33,0-2,.38.01.77.02,1.15.03.3.96.59,1.92.89,2.89,1.37.57,2.94.77,3.88,2.01.35.03.7.06,1.05.09,0,.63.02,1.27.02,1.9-2.74.41-5.32,1.59-7.98,2.06-1.65,1.35-3.31,2.7-4.96,4.05-.36,1.65-.72,3.29-1.08,4.94,0,0,.04-.02.04-.02-4.11,2.13-8.13,3.72-12.83,3.11-.36,1.3-.72,2.59-1.08,3.89.65,0,1.31,0,1.96-.01,0,0-.13.21-.13.21.03.24.06.49.1.73-1.13.49-2.26.97-3.39,1.46,3.09.91,6.23.4,9.38.67-.02.32-.02.64-.04.96-9.03.58-17.91,2.76-26.89,3.96-.35-.37-.71-.74-1.06-1.11-1.43-.45-3.04-.51-3.99-1.8-.67.01-1.33.02-2,.04-.31.69-.61,1.38-.92,2.07-1.02.57-2.04,1.15-3.06,1.72-1.76-2.6-3.39-1.18-5.03.16,0,.35,0,.7,0,1.04,0,0-.03-.08-.03-.08.36.41.72.81,1.07,1.22.07.98-.97,1.48-1.09,2.4-3.31.48-6.63.96-9.94,1.43-2.25-1.72-4.51-3.44-6.76-5.17-.53-1.41-1.05-2.87-2.28-3.81,0,0,.1-.09.1-.09-.38-1.31-.75-2.62-1.13-3.93-1.59-.93-3-2.26-4.96-2-.33.32-.66.63-.98.95-4.7.46-9.35-1.39-14.01-1.97.36-.71.74-1.41,1.08-2.12l-.14.23c-.98,0-1.96,0-2.94-.01ZM62.88,49.97h0s0,0,0,0ZM28.81,101.86c-.63.01-1.26.03-1.89.04.63-.01,1.26-.03,1.89-.04ZM72.87,21.95c-.38.29-.08.64.03,1,0-.33-.02-.67-.03-1ZM144.86,76.94l.45.11.44-.13c0-.61.02-1.22.03-1.84-.55.09-1.11.18-1.66.27.24.54.47,1.08.71,1.62l.04-.03ZM12.88,71h1.06c-.34-.36-.69-.73-1.03-1.09-.26.06-.52.13-.79.19.25.3.5.6.75.9ZM111.85,14c.33-.01.65-.02.98-.03-.33-.07-.66-.05-.98.03ZM48.85,133.95c.02-.36.03-.73.05-1.09-.31.34-.62.68-.92,1.01.31.02.62.03.93.03l.27.18s-.32-.13-.32-.13ZM158.74,94.06c-.28-.04-.56-.06-.84-.06,0,.63,0,1.26-.01,1.89.28-.61.57-1.22.85-1.82ZM143.81,85.92c.25-.16.51-.31.76-.47-.26-.15-.52-.3-.79-.45-.04.31-.03.61.02.92ZM143.87,79.94c.33,0,.66,0,.99,0-.33-.05-.66-.06-.99,0ZM18.81,69c-.31.32-.61.63-.92.95.31-.32.61-.63.92-.95ZM73.92,55.94c-1.07,0-2.13,0-3.2,0,1.07,0,2.13,0,3.2,0ZM74.83,53.92c.45.03.91.06,1.36.1-.41-.4-.81-.8-1.22-1.21-2.54.53-4.65-.25-6.82-1.54.53.61,1.05,1.22,1.58,1.82,1.69.25,3.39,1.02,5.11.83ZM78.78,50.98c.39-.02.79-.04,1.18-.06-.32-.25-.63-.5-.95-.75-.08.27-.16.54-.24.81ZM128.84,92.96l-2.39-.69c.14.23.28.45.41.68.66,0,1.32,0,1.97.01ZM138.83,96.95c0-.33.02-.66.02-.99-.39-.27-.79-.53-1.18-.8.38.6.77,1.19,1.15,1.79ZM29.5,77.67c.15.04.31.09.46.13,0-.23.01-.46.02-.68-.41.02-.56.13-.48.56ZM26.57,110.59l.18.24.12-.26-.3.02Z"/>
      <path class="cls-10" d="M139.82,131.87c.41-2.31,1.21-4.57,1.02-6.94,1.21.12,2.26-.23,3.2-.98.27,0,.54,0,.8-.01.34.33.67.66,1.01.99.06-.32.06-.65,0-.97-.34,0-.68-.01-1.01-.02.05-.64.09-1.27.14-1.91.29-.02.58-.08.86-.07.39.33.78.65,1.17.98.31-.66.47-1.43.87-2.03,1,.02,2,.04,3.01.05.31.32.63.64.94.96.66-.32,1.33-.65,1.99-.97-.03,1.32-.05,2.63-.07,3.95.01-.33.02-.65.01-.98-1.1.09-2.35-.22-3.36.26.13.22.26.45.4.67,2.83.65,5.79,2.51,3.79,5.96-.11-.75-.22-1.51-.33-2.26-.91.74-1.83,1.47-2.74,2.21-.95.08-1.91.16-2.86.24-.27.65-.53,1.29-.8,1.94-.36,0-.71-.02-1.07-.03-.02-.64,0-1.28.04-1.92-1.34-.34-2.67-.68-4.01-1.02-.65.66-1.3,1.32-1.96,1.98-.34-.02-.69-.05-1.03-.07Z"/>
      <path class="cls-32" d="M64.88,21.95c-1.65,1.02-3.3,2.04-4.95,3.05,0-.34-.01-.68-.02-1.02v.02c.62-.36,1.24-.71,1.86-1.07l-.91-1.83c-3.16-.02-5.58-2.41-7.06-5,.3-.45.74-.87,1.18-1.19,3.97.41,6.94,2.52,9.88,5.06-.34.34-.67.68-1.01,1.02,0,0,0,0,0,0,.34,0,.68,0,1.02-.01,0,.33,0,.65,0,.98Z"/>
      <path class="cls-71" d="M97.93,142.85c6.31-.86,12.6-2.33,18.93-2.85-2,1.63-4,3.27-6,4.9-4.7.18-9.34-.58-14.01-.99.36-.35.72-.71,1.08-1.06Z"/>
      <path class="cls-83" d="M22.9,91.93c0,.32,0,.64,0,.95-3.33.39-6.66.78-9.99,1.17-.27-2.44-1.41-4.73-2.04-7.1,2.26,0,4.53.01,6.79.02.42,1.27-.03,2.61.24,3.82,1.3.36,2.66.12,3.99.17,0,0-.01,0-.01,0,.34-.07.68-.15,1.02-.22-.07.39-.02.8-.01,1.18Z"/>
      <path class="cls-15" d="M130.8,127.9c.36-1.65.72-3.29,1.08-4.94,1.33-.29,2.66-.58,3.99-.87,0,.27,0,.55,0,.82-.15.28-.16.74,0,1.03-.02,2.33-.06,4.66-.04,6.99-.23-.03-.62-.05-.94-.07-.05.68-.07,1.36-.03,2.04-3.66-.64-7.31-1.28-10.97-1.91,2.31-1.04,4.62-2.07,6.93-3.11.03.38.06.75.08,1.13l.86.86c-.33-.66-.65-1.31-.98-1.97Z"/>
      <path class="cls-70" d="M125.84,10c.19.64.04,1.31.03,1.96-2.78-.43-5.11-2.41-8.11-1.91-.18-1.64-.36-3.29-.53-4.93,1.54-.3,3.1-.15,4.66-.15,1.31,1.69,2.31,3.65,3.95,5.04Z"/>
      <path class="cls-82" d="M17.84,89.86c.2-.97-.03-1.92-.16-2.88-2.26,0-4.53-.01-6.79-.02.99-.61,1.99-1.23,2.98-1.84,2.35.4,4.69.76,7.07.81.62.74,1.31,1.4,2.08,1.99.29.03.58.07.87.12,0,.28,0,.57,0,.86-.33.35-.66.71-.98,1.06h0c-.33.34-.67.68-1,1.02-1.25-.07-2.7.18-3.98-.18-.02-.31-.05-.62-.08-.93Z"/>
      <path class="cls-68" d="M59.78,16.06c-1.6-.38-3.2-.76-4.8-1.14-.67.34-1.35.69-2.02,1.03-.66-1.36-1.32-2.72-1.98-4.08.3.04.6.09.9.14,1.98-1.35,3.95-2.7,5.93-4.04.02,1.67.04,3.34.06,5.01,2.04.67,4.05,1.41,6.03,2.22-.01.25-.03.51-.04.76-1.36.03-2.72.07-4.09.1Z"/>
      <path class="cls-52" d="M102.87,1c3.99-.29,7.98-.58,11.98-.86,0,.25,0,.51,0,.76-1.07.72-2.14,1.44-3.21,2.16,0,0,.23-.07.23-.07-.31.38-.63.76-.94,1.14-2.34-.1-4.69-.15-7.03-.22-.12-.27-.69-1.41-.97-1.98,0,0,.07-.09.07-.09,0-.29-.04-.59-.09-.88l-.02.04Z"/>
      <path class="cls-52" d="M162.87,78.93c.96,4.2-2.15,4.99-5.02,5.97-.35-.66-.7-1.33-1.06-1.99.29-1.33.57-2.66.86-3.99.39-.33.77-.66,1.16-1,1.28.75,2.57,1.14,4.06,1Z"/>
      <path class="cls-5" d="M15.96,107.12c-.16,1.25-.06,2.51-.04,3.77-4.13,1.65-5.51-2.36-8.07-3.92l.07-.07c2.79-.63,5.4-1.19,8.04.23Z"/>
      <path class="cls-57" d="M153.89,69.91c-1.12-3.96,1.81-4.59,4.7-5.92,1.76.66,3.51,1.32,5.27,1.98l-.03-.04c-3.06,1.95-8.04-.89-9.94,3.98Z"/>
      <path class="cls-53" d="M79.96,10.06c1.57-.7,2.77-1.83,3.92-3.08,1.05,1.03,2.1,2.05,3.15,3.08,0,0-.27-.12-.27-.12,0,0,.22.15.22.15-1.06.94-2.12,1.88-3.17,2.82-.62,0-1.24,0-1.86,0-.05-.24-.09-.48-.13-.72-.62-.38-1.24-.76-1.85-1.14,0-.33,0-.67,0-1Z"/>
      <path class="cls-36" d="M98.44,142.76c-.36.35-.72.71-1.08,1.06-4.06-.24-8.08.55-12.1.95,3.75-2.49,7.61-3.55,12.12-3.12.35.37.71.74,1.06,1.11Z"/>
      <path class="cls-13" d="M59.85,21.05c.34.02.68.04,1.02.06.3.61.6,1.22.91,1.83-.62.36-1.24.71-1.86,1.07-2.41-.47-4.58-1.04-6.12-3.09.33-.63.66-1.27,1-1.9.33-.01.66-.02.99-.03,1.35.62,2.55,1.95,4.06,2.06Z"/>
      <path class="cls-8" d="M161.86,35.99c-1.73-.72-3.46-1.45-5.18-2.17,1.46-1,2.92-1.99,4.38-2.99-.7.45-1.39.89-2.09,1.33l.26-.11c1.23.25,2.44.63,3.66.92-.03.37-.07.74-.1,1.11-.27.21-.54.41-.81.62-.04.43-.07.85-.11,1.28Z"/>
      <path class="cls-13" d="M58.85,24.96c-.97,1.36-1.95,2.73-2.92,4.09-1.01-.08-2.03-.07-3.05-.08-.35-.66-.71-1.31-1.06-1.97,0,0,.23-.21.23-.21.26.03.52.09.77.16,1.99-.86,3.79-2.45,6.07-1.94l-.05-.06Z"/>
      <path class="cls-37" d="M73.87,13c-2.76-.2-3.1-1.71-2.12-3.93,1.74.33,3.47.66,5.21.99.35.36.72.71,1.05,1.08-.7.61-1.4,1.22-2.11,1.83-.68.06-1.36-.13-2.02.01Z"/>
      <path class="cls-7" d="M18.74,85.87c-1.63-.25-3.25-.51-4.88-.76-.32-.39-.64-.77-.96-1.16,2.02-.67,4.03-1.34,6.05-2.01,0,0-.08-.03-.08-.03,1.13.66,2.69,1.05,3.25,2.34-.72-.04-1.44-.07-2.16-.11-.4.57-.81,1.15-1.21,1.72Z"/>
      <path class="cls-32" d="M156.79,82.91c.35.66.7,1.33,1.06,1.99-.66.68-1.32,1.36-1.98,2.03-1.6-2.1-3.07-4.32-5.09-6.05.04-.31.07-.62.1-.94l-.04.03c1.34-.01,2.67-.02,4.01-.03,0,.34,0,.68-.01,1.01-.33.36-.67.72-1,1.08.37.32.75.63,1.12.95.64-.03,1.28-.05,1.92-.08h-.08Z"/>
      <path class="cls-36" d="M71.88,149.94c3.31-.48,6.63-.95,9.94-1.43-1.13,1.08-2.27,2.17-3.4,3.26-.85.08-1.69.16-2.54.24-1.33-.69-2.67-1.37-4-2.06Z"/>
      <path class="cls-13" d="M129.84,17.99c-1.66-1.34-3.33-2.67-4.99-4.01.34-.32.68-.64,1.02-.96,1.01,0,2.01-.02,3.02-.02-.12.03.03.69.01.97l1.99,1.04c.07.97-.55,2.04-1.05,2.99Z"/>
      <path class="cls-82" d="M91.77,18.15c-1.29-.17-2.6-.11-3.91-.17,0,0,0,0,0,0,.34-.67.67-1.34,1.01-2.01.98-.45,1.86-1.18,2.98-1.03.35.34.7.69,1.05,1.03.66-.34,1.33-.65,1.98-1.01.66.32,1.32.65,1.97.97.14.65,0,1.37-.01,2.05-1.69.05-3.38.11-5.07.16Z"/>
      <path class="cls-73" d="M135.56,105.05c.49-.02.97-.04,1.46-.06.95.98,1.9,1.96,2.85,2.93,0,0-.21.14-.21.14-.26-.05-.52-.09-.78-.13-.34.33-.68.67-1.02,1-.03,1-.02,2-.02,2.99-.27.02-.54.03-.81.06-.26-.64-.45-1.25-.27-1.94-.94-1.13-2.01-2.13-3.05-3.17.05-.33.1-.66.16-.99.04.07,1.24-.65,1.68-.85Z"/>
      <path class="cls-22" d="M96.85,15.94c1-1.3,2-2.59,3-3.89,2.02-.13,3.96-.32,5.89-1.02-1.68,1.97-3.82,3.39-5.88,4.92-.99.09-1.97.06-2.96.06l-.04-.08Z"/>
      <path class="cls-54" d="M29,44.83c.34,1.06.68,2.13,1.02,3.19-2.1-.15-4.14.66-6.21.96.09-1.3.19-2.59.28-3.89,0,0,.34.29.34.29,0,0,.31-.34.31-.34.76-.08,1.53-.08,2.3-.04-.04.32-.1.64-.15.96.35,0,.71.01,1.06.02.35-.38.7-.77,1.05-1.15Z"/>
      <path class="cls-10" d="M164.9,53.96c.97,1,1.93,2,2.9,3-2.83-1.25-5.86-.97-8.88-1.03,0-.61,0-1.22-.01-1.83,2,0,4,.02,6-.14Z"/>
      <path class="cls-5" d="M20.88,108.93c.65.73,1.3,1.46,1.94,2.19-2.3-.07-4.59-.15-6.89-.22,1.66-.65,3.31-1.3,4.97-1.95,0,0-.02-.02-.02-.02Z"/>
      <path class="cls-37" d="M135.88,122.09c-1.33.29-2.66.58-3.99.87,1.65-1.35,3.31-2.7,4.96-4.05.04,1.01.21,2.01-.02,3-.32.05-.63.11-.95.17Z"/>
      <path class="cls-63" d="M18.95,81.95c-2.02.67-4.03,1.34-6.05,2.01-.34-.31-.68-.63-1.02-.94.83-.82,1.04-1.8,1.05-2.94.33-.08.65-.16.98-.24,1.68.71,3.36,1.41,5.03,2.12Z"/>
      <path class="cls-50" d="M26.99,59.03c-2.72,2.37-5.4,2.01-8.06-.12,2.69.04,5.37.08,8.06.12Z"/>
      <path class="cls-82" d="M81.94,12.92c.62,0,1.24,0,1.86,0,.7,1,1.41,2.01,2.11,3.01-1.66.34-3.46-.09-5.06.13.02-.3.05-.6.09-.9-.24-.46-.72-.78-1.06-1.18.69-.35,1.37-.71,2.06-1.06Z"/>
      <path class="cls-56" d="M158.8,77.93c-1.11.86-1.99,1.94-2.92,2.99-.05-.67-.11-1.33-.16-2l-.95-.87c-.32-.07-.63-.14-.95-.22,1.03-.96,2.05-1.91,3.08-2.87,1,.05,1.99.08,2.99.02-.03.64-.07,1.28-.1,1.92-.33.34-.66.68-1,1.02,0,0,0,0,0,0Z"/>
      <path class="cls-17" d="M111.62,3.06c2.4-1.81,5.12-3.32,8.23-3.02.01.31.02.61.02.92-.36.33-.72.66-1.08.99-2.39.37-4.78.74-7.17,1.11Z"/>
      <path class="cls-13" d="M152.87,79.97c-.68,0-1.36.01-2.04.02-.09-.66-.08-1.31,0-1.97-1.33-.98-2.8-1.81-3.89-3.07.59-.37,1.18-.75,1.77-1.12,1.61-.04,3.08.99,4.14,2.14-.02.99,0,1.97.02,2.96l.14-.08c-.05.37-.09.74-.14,1.12Z"/>
      <path class="cls-35" d="M31.98,35.87c.69-1.46,1.63-2.7,2.8-3.81.8.9,1.45,1.91,2.11,2.91-.01.32-.02.64-.01.96-.32.34-.63.69-.95,1.03,0,.34,0,.69,0,1.03-1.31-.7-2.63-1.41-3.94-2.11Z"/>
      <path class="cls-3" d="M86.89,143.77c-.71.36-1.43.73-2.14,1.09.04.63.08,1.25.12,1.88-.68.01-1.36.03-2.04.04.02-.23.05-.45.08-.68-.36-.41-.72-.81-1.07-1.22.08.07,0-.7.03-.96,1.64-1.34,3.27-2.76,5.03-.16Z"/>
      <path class="cls-54" d="M158.75,64.02c-4.05-3.29,1.88-2.39,1.7-4.06-.57,1.35-1.14,2.7-1.7,4.06Z"/>
      <path class="cls-51" d="M162.78,34.09c.03-.37.07-.74.1-1.11,1.01,0,2.02-.02,3.03-.03-1.01,1.36-2.02,2.72-3.03,4.08-.34-.34-.68-.69-1.02-1.03.04-.43.07-.85.11-1.28.27-.21.54-.41.81-.62Z"/>
      <path class="cls-9" d="M31.98,35.87c1.31.7,2.63,1.41,3.94,2.11,0,0-.05-.06-.05-.06.05.99.08,1.99.03,2.98-1.35-1.38-2.69-2.75-4.04-4.13.02-.31.06-.61.11-.91Z"/>
      <path class="cls-47" d="M12.86,100.96c.66.36,1.33.71,1.99,1.07-.96.41-1.81,1.13-2.89,1.06-.33.27-.67.55-1,.82-.67-.31-1.33-.62-2-.93,1.39-.55,2.97-.74,3.89-2.02Z"/>
      <path class="cls-13" d="M15.96,107.12c-1.07-.37-2.14-.74-3.22-1.11,3.01-.73,5.98-1.33,9.08-.92,0,.56,0,1.12,0,1.68-.25.03-.74.03-.99.02-1.59-.11-3.25.29-4.86.33Z"/>
      <path class="cls-69" d="M22.98,97.99c-.7,1.29-1.4,2.57-2.1,3.86-.37-1.87-1.25-4.02,2.1-3.86Z"/>
      <path class="cls-42" d="M102.87,1s.02-.04.02-.04"/>
      <path class="cls-37" d="M6.94,64.01c-1.66.99-3.32,1.99-4.98,2.98-.27-4.21,3.56-1.58,4.98-2.98Z"/>
      <path class="cls-35" d="M12.86,93.18c.01.29.03.58.06.87-.9.12-1.81.24-2.71.35-.05-.43-.1-.85-.14-1.28.93.02,1.87.03,2.8.05Z"/>
      <path class="cls-57" d="M158.92,55.93c1.97.03,3.94.05,5.91.08,0,.31,0,.62,0,.92-1.36.34-2.73.68-4.09,1.01-1.63-.66-3.26-1.32-4.89-1.98,1.02-.01,2.05-.02,3.07-.04Z"/>
      <path class="cls-15" d="M126.78,1.82c-.66.39-1.31.78-1.97,1.17-1.64,0-3.27.04-4.9.12-.02-.36-.04-.73-.06-1.09l.05-.09c1.39-.09,2.68-.37,3.96-.94,1.05-.04,1.96.46,2.92.83Z"/>
      <path class="cls-59" d="M144.99,122.02c-.05.64-.09,1.27-.14,1.91,0,0,0,0,0,0-1.73.1-3.25-1.11-5-1,0,0,0,0,0,0,0-.33,0-.66,0-.99.33-.34.66-.69,1-1.03,0-.32-.02-.63-.03-.95.68,0,1.36-.02,2.04-.03,0,.29,0,.58-.01.88.35.36.7.72,1.04,1.08.32.03.65.05.97.04l.14.09Z"/>
      <path class="cls-42" d="M151.51,130.75c.91-.74,1.83-1.47,2.74-2.21.11.75.22,1.51.33,2.26-1.04.23-2.05.22-3.08-.05Z"/>
      <path class="cls-26" d="M116.93,134.88c.36-1.3.72-2.59,1.08-3.89.32.61.64,1.22.96,1.83-.74.63-1.42,1.31-2.04,2.06Z"/>
      <path class="cls-86" d="M81.94,12.92c-1.29.8-2.58,1.3-4.11,1.02-.01-.93.09-1.86.16-2.78,0,0-.17-.19-.17-.19.01-.32,0-.63,0-.95.71.01,1.42.02,2.13.04,0,.33,0,.67,0,1,.62.38,1.24.76,1.85,1.14.04.24.08.48.13.72Z"/>
      <path class="cls-40" d="M23.82,48.98c1.69-.34,3.38-.68,5.07-1.01,0,.33,0,.67,0,1-.74.41-1.48.81-2.22,1.22-.95-.4-1.9-.8-2.85-1.2Z"/>
      <path class="cls-36" d="M106.85,144.92c2.11,0,4.21-.32,6.01,1-1.65.42-3.26-.11-4.93-.02-.36-.33-.72-.66-1.08-.98Z"/>
      <path class="cls-67" d="M23.13,119.06c.61.94,1.22,1.87,1.82,2.81-1.06-.57-2.12-1.15-3.17-1.72.45-.36.9-.72,1.35-1.09Z"/>
      <path class="cls-65" d="M126.78,1.82c-1.7-.98-3.36-.95-5.08-.04.03-.57.07-1.14.1-1.72,1.66.59,3.32,1.17,4.98,1.76Z"/>
      <path class="cls-52" d="M165.92,32.95c-2.41.38-4.64-.62-6.95-.78.7-.44,1.39-.89,2.09-1.33,1.62.71,3.24,1.41,4.86,2.12Z"/>
      <path class="cls-76" d="M162.92,46.89c-.35-.98-.71-1.96-1.06-2.94.34,0,.68,0,1.03.01l-.06-.04c.05.99.07,1.98.09,2.97Z"/>
      <path class="cls-40" d="M162.92,41.94c0-1.36,0-2.72,0-4.08,1.03.67,2.06,1.35,3.09,2.02-1.17.52-2.36.95-3.08,2.06Z"/>
      <path class="cls-15" d="M84.63,16.07c1.4-.23,2.82-.11,4.24-.1-.34.67-.67,1.34-1.01,2.01-1.08-.64-2.15-1.27-3.23-1.91Z"/>
      <path class="cls-4" d="M140.85,131.94c.34-.34.68-.68,1.02-1.03,1.74-.08,3.03,1.48,4.9.98.01.33.02.67.02,1-1.97-.01-3.94-.02-5.91-.03,0-.31-.01-.61-.02-.92Z"/>
      <path class="cls-58" d="M140.84,120.91c-.33.34-.66.69-1,1.03-.33,0-.66-.01-.99-.02,0,0,0,0,0,0-.63-.3-1.26-.6-1.88-.9-.04-.7-.08-1.4-.12-2.1.96-.07,1.92-.05,2.88-.07l.17.14c-.01.33-.03.66-.04.99.33.31.65.62.98.94Z"/>
      <path class="cls-2" d="M142.83,113.93c-.98-.36-1.96-.72-2.94-1.08,1.64.7,3.28,1.4,4.93,2.11-.35-.03-.7-.06-1.05-.09-.31-.31-.62-.62-.94-.93Z"/>
      <path class="cls-5" d="M12.75,103.07c.7-.35,1.4-.7,2.1-1.04.34.3.69.6,1.03.9-.01.36-.02.72-.03,1.08-1.34,0-2.67,0-4.01,0,.19-.4.61-.63.91-.94Z"/>
      <path class="cls-30" d="M162.87,78.93c-.68-.01-1.36-.03-2.05-.04.07-1.28-.01-2.54.08-3.82.67,0,1.33,0,2,.01-.09,1.28-.03,2.57-.03,3.86Z"/>
      <path class="cls-25" d="M51.71,32.02c-1.31.35-2.62.69-3.93,1.04,1.31-.35,2.62-.69,3.93-1.04Z"/>
      <path class="cls-74" d="M54.79,19.02c-.33.63-.66,1.27-1,1.9-.56-.48-1.12-.96-1.68-1.44.89-.15,1.78-.31,2.67-.46Z"/>
      <path class="cls-34" d="M151.51,130.75c.5.09,1,.18,1.5.28-1.07.38-2.14.76-3.21,1.14-.38-.39-.77-.79-1.15-1.18.95-.08,1.91-.16,2.86-.24Z"/>
      <path class="cls-58" d="M139.89,118.01c1.65-.38,3.3-.77,4.94-1.15-1.65.71-3.29,1.41-4.94,2.12,0,0-.17-.14-.16-.14.05-.28.11-.56.16-.84Z"/>
      <path class="cls-79" d="M162.71,103.83c.26-1.67.79-3.28,1.18-4.93.29,0,.58,0,.87,0-.68,1.65-1.36,3.29-2.04,4.94Z"/>
      <path class="cls-47" d="M43.01,38.73c-.06-.57-.11-1.15-.17-1.72.71-.36,1.42-.73,2.13-1.09-.02,1.03-.04,2.06-.06,3.09-.63-.09-1.27-.18-1.9-.27Z"/>
      <path class="cls-56" d="M142.83,120.81c0-.29,0-.58.01-.88,1.68.32,3.36.65,5.04.97,0,0-.09.08-.09.08-.92.4-1.76,1.05-2.8,1.04-.41-.29-.73-.69-1.1-1.03-.35-.06-.7-.13-1.06-.19Z"/>
      <path class="cls-30" d="M13.91,79.83c-1.36.18-2.48,1.2-3.87,1.19-.12-1-.24-2-.36-3.01,1.65-.14,2.85,1.09,4.23,1.82Z"/>
      <path class="cls-36" d="M64.77,143.83c.12.31.23.63.35.94-1.07-.29-2.15-.59-3.23-.88.34-.97,1.02-1.87.95-2.93.98.73,1.45,1.78,1.93,2.87Z"/>
      <path class="cls-80" d="M103.88,3.91c1.3.04,2.6.07,3.9.11-.28.97-.55,1.94-.83,2.91,0,0-.26.17-.26.17-.94-1.06-1.88-2.13-2.82-3.19Z"/>
      <path class="cls-54" d="M150.87,30.83c-1.04-.58-2.07-1.16-3.11-1.74,1.04.58,2.07,1.16,3.11,1.74Z"/>
      <path class="cls-60" d="M105.73,11.04c-1.02.28-2.03.56-3.05.84-.27-.3-.55-.61-.82-.91,0-.33,0-.66,0-.99,1.34,0,2.68-.06,4.02.02,0,.32,0,.63,0,.95l-.16.09Z"/>
      <path class="cls-44" d="M50.97,29.83c-.32.35-.65.71-.97,1.06-.23-.41-.46-.83-.69-1.24.55.06,1.11.12,1.66.18Z"/>
      <path class="cls-75" d="M57.92,24.94c-.34,0-.68,0-1.03,0-.31-.65-.63-1.3-.94-1.95.94.32,5.39,1.13,2.89,1-.3.32-.61.63-.91.95Z"/>
      <path class="cls-80" d="M105.88,10.01c-.35-.02-.69-.03-1.04-.05.62-.95,1.23-1.91,1.85-2.86,0,0,.26-.17.26-.17.33.29.66.58.99.86-.03.73-.05,1.46-.08,2.19,0,0,.08.06.08.06-.68-.01-1.37-.03-2.05-.04Z"/>
      <path class="cls-70" d="M34.77,32.06c-.55.59-1.11,1.18-1.66,1.78-.14-.97-.27-1.93-.41-2.9.39-.33.79-.66,1.18-.99.3.7.59,1.41.89,2.11Z"/>
      <path class="cls-72" d="M75.88,152c.85-.08,1.7-.16,2.54-.24-.85.08-1.7.16-2.54.24Z"/>
      <path class="cls-83" d="M116.86,140c-.33-.02-.67-.03-1-.02,1.73-.31,3.47-.62,5.2-.93-1.4.32-2.8.63-4.21.95Z"/>
      <path class="cls-35" d="M83.87,6.98c-.66.67-1.33,1.33-1.99,2,.66-.67,1.33-1.33,1.99-2Z"/>
      <path class="cls-19" d="M61.81,136.95c.38,1.31.75,2.62,1.13,3.93-.38-1.31-.75-2.62-1.13-3.93Z"/>
      <path class="cls-30" d="M53.62,136.11c.75-.07,1.5-.14,2.25-.21.03.37.06.74.09,1.12-.44.18-.84,1.53-1.28,2.11-.36-1-.71-2.01-1.07-3.01Z"/>
      <path class="cls-21" d="M118.86,135.81c-.04-.24-.07-.49-.1-.73.71.6,1.43,1.21,2.14,1.81-.34.34-.69.67-1.03,1.01-.35,0-.7,0-1.05,0,.01-.69.03-1.39.04-2.08Z"/>
      <path class="cls-71" d="M135.84,130.93c-.01-.95-.02-1.9.03-2.86.34-.38.67-.76,1.01-1.15.13.16.69.07.99.15-.03.61-.05,1.23-.07,1.84-.22.54-.73,1.36-1.05,2-.3,0-.6,0-.9.01Z"/>
      <path class="cls-81" d="M128.89,13c-1.36,0-2.73.04-4.09,0,0,0,.03.06.03.06.07-.38.13-.77.2-1.15.28.01.57.03.85.04.3-.29.6-.58.89-.88.34-.01.67-.03,1.01-.04.39.64.74,1.31,1.11,1.96Z"/>
      <path class="cls-27" d="M152.9,106.75c.65-.28,1.29-.55,1.94-.83.33.68.66,1.37.99,2.05-.97-.41-1.95-.81-2.92-1.22Z"/>
      <path class="cls-45" d="M17.96,58.84c-1.09.31-2.18.63-3.28.94,1.09-.31,2.18-.63,3.28-.94Z"/>
      <path class="cls-3" d="M110.99,146.16c.62-.08,1.24-.16,1.86-.24,0,0-.15.19-.15.19.06.61.12,1.22.18,1.84-.34,0-.69-.01-1.03-.02-.32-.34-.64-.68-.97-1.02,0,0,.01-.02.01-.02.04-.24.08-.48.09-.72Z"/>
      <path class="cls-7" d="M50.89,25.9c.25-.59.5-1.19.75-1.78.09.63.17,1.26.26,1.89-.34-.04-.67-.07-1.01-.11Z"/>
      <path class="cls-66" d="M57.08,138.71c.31.74.62,1.48.92,2.22-.37.34-.8.63-1.14.99-.33-.34-.66-.68-.99-1.02,0,0,.02,0,.02,0-.04-.29-.08-.57-.13-.86.42-.45.89-.89,1.31-1.33Z"/>
      <path class="cls-42" d="M54.69,139.12c.4-.74.81-1.47,1.21-2.21.39.6.79,1.2,1.18,1.8,0,0-.31.32-.31.32-.33.33-.69.67-1,1.01-.29-.05-.59-.09-.88-.13-.06-.26-.13-.53-.2-.79Z"/>
      <path class="cls-85" d="M160.96,93.04c.19-.65.37-1.3.56-1.95-.19.65-.37,1.3-.56,1.95Z"/>
      <path class="cls-57" d="M42.81,132.07c-.32.62-.64,1.24-.95,1.86-.67-.63-1.34-1.27-2.01-1.9.98,0,1.96,0,2.94.01,0,0,.02.04.02.04Z"/>
      <path class="cls-39" d="M27.05,45.01c-.42-.01-.84-.03-1.26-.04.04-.35.09-.7.13-1.04.68-.38,1.35-.76,2.03-1.14.3.41.6.82.9,1.23-.39.38-.78.76-1.17,1.15-.21-.04-.42-.09-.63-.16Z"/>
      <path class="cls-59" d="M36.89,34.97c-.41-.62-.83-1.24-1.24-1.86.75-.04,1.5-.09,2.24-.13.33.34.66.67.99,1.01,0,.33,0,.66,0,.98-.66,0-1.33,0-1.99,0Z"/>
      <path class="cls-8" d="M4.87,77.9c.01-.65.02-1.31.03-1.96.96.43,1.91.86,2.87,1.29,0,.17-.01.33,0,.5-.97.06-1.93.12-2.9.18Z"/>
      <path class="cls-10" d="M155.82,107.97c-.33-.68-.66-1.37-.99-2.05.67-.33,1.34-.65,2.01-.98-.34,1.01-.68,2.02-1.02,3.02Z"/>
      <path class="cls-15" d="M92.89,15.98c-.35-.34-.7-.69-1.05-1.03,0-.31,0-.62-.02-.94,1.02.32,2.03.64,3.05.96,0,0-.05.03-.05.03-.64.32-1.29.65-1.94.97Z"/>
      <path class="cls-50" d="M159.86,51.04c.99.3,1.98.61,2.98.91,0,.4.05.83-.03,1.23l-3.06-1.07c.04-.36.08-.71.12-1.07Z"/>
      <path class="cls-40" d="M117.77.05c-.98.29-1.95.57-2.93.86,0-.26,0-.51,0-.76.97-.03,1.95-.06,2.92-.09Z"/>
      <path class="cls-66" d="M121.79.06c-.03.57-.07,1.15-.1,1.72-.21.01-.64.01-.85,0-.33-.27-.65-.55-.98-.82,0-.31,0-.62-.02-.92.65,0,1.3.02,1.95.02Z"/>
      <path class="cls-80" d="M102.88.96c.06.29.09.58.09.88"/>
      <path class="cls-62" d="M121.82,3.02c1,0,1.99-.01,2.99-.02-.97.35-1.93.69-2.9,1.04-.03-.34-.06-.68-.09-1.02Z"/>
      <path class="cls-74" d="M58.88,8.02c.67-.4,1.34-.79,2.01-1.19,0,0-.15.36-.15.36-.31.26-.54.64-.92.8-.32,0-.65,0-.98.01,0,0,.02.02.02.02Z"/>
      <path class="cls-78" d="M69.86,8.95c-.4-.26-.81-.52-1.21-.78.4.26.81.52,1.21.78Z"/>
      <path class="cls-67" d="M98.86,9.99l-.67-.11c.22.04.45.07.67.11,0,0,0,0,0,0Z"/>
      <path class="cls-48" d="M52.97,15.95c.4-.18,2.5-1.34,1.71-.81-.3.3-.65.59-.87.96-.28-.06-.56-.11-.84-.15Z"/>
      <path class="cls-28" d="M33.88,29.95c-.39.33-.79.66-1.18.99.39-.33.79-.66,1.18-.99Z"/>
      <path class="cls-40" d="M167.87,43.02c.01-.71.03-1.43.04-2.14-.01.71-.03,1.43-.04,2.14Z"/>
      <path class="cls-8" d="M27.95,42.79c-.68.38-1.35.76-2.03,1.14-.18-.66-.14-1.31-.04-1.98.66-.13,1.32-.12,1.99-.01.03.28.06.57.09.85Z"/>
      <path class="cls-40" d="M163.9,43.93c.96,0,1.92,0,2.87,0-.96,0-1.92,0-2.87,0Z"/>
      <path class="cls-66" d="M27.57,53.03c.44.31.87.62,1.31.92.04.68.05,1.36.02,2.04,0,0-.3-.07-.31-.07-.34-.97-.68-1.93-1.02-2.89Z"/>
      <path class="cls-65" d="M164.9,53.96c-.69.04-1.38.08-2.07.12-.02-.42-.07-.87.02-1.28.68.39,1.37.77,2.05,1.16Z"/>
      <path class="cls-64" d="M11.99,57.87c-.34.06-.68.12-1.02.18.23-.28.46-.56.69-.84.11.22.22.44.33.66Z"/>
      <path class="cls-25" d="M164.83,56.93c0-.31,0-.62,0-.92.99.32,1.98.63,2.97.95-.99,0-1.98-.02-2.97-.03Z"/>
      <path class="cls-2" d="M7.77,77.72c0-.17,0-.33,0-.5,1.05.25,2.09.5,3.14.76,0,0,.09.12.09.12-1.09-.03-2.17-.2-3.24-.38Z"/>
      <path class="cls-66" d="M10.05,81.02c.93-.1,1.86,0,2.79.03-.01.27-.04.54-.09.81-.64.05-1.28.09-1.92.14l-.78-.98Z"/>
      <path class="cls-57" d="M145.65,104.82c.12-.23.25-.47.37-.7.27.28.54.55.81.83-.4-.04-.79-.09-1.19-.13Z"/>
      <path class="cls-66" d="M139.87,107.92c0,.64,0,1.28-.01,1.92-.02-.6-.04-1.19-.2-1.78l.21-.14Z"/>
      <path class="cls-76" d="M153.76,123.91c0,.33,0,.65-.01.98-1,.09-1.98.27-2.95-.05.01-.3.03-.59.04-.89.98-.02,1.95-.05,2.93-.04Z"/>
      <path class="cls-86" d="M148.65,130.99c.38.39.77.79,1.15,1.18-.65.25-1.3.5-1.95.76.27-.65.53-1.29.8-1.94Z"/>
      <path class="cls-41" d="M55.96,137.01c-.03-.37-.06-.74-.09-1.12.33-.32.66-.63.98-.95.44,0,.88.02,1.32.02-.74.68-1.47,1.36-2.21,2.04Z"/>
      <path class="cls-83" d="M119.87,137.9c.34-.34.69-.67,1.03-1.01.71.3,1.43.6,2.14.91-1.06.03-2.12.07-3.18.1Z"/>
      <path class="cls-47" d="M27.86,41.93c-.34-.04-.69-.07-1.03-.11.04-.65.08-1.29.11-1.94.31.68.61,1.37.92,2.05Z"/>
      <path class="cls-15" d="M136.97,121.02c.63.3,1.26.6,1.88.9-.68,0-1.35,0-2.03,0,.04-.3.09-.6.14-.9Z"/>
      <path class="cls-74" d="M151.83,121.91c-.31-.32-.63-.64-.94-.96.31.02.62.05.93.09,0,.29,0,.58.01.86Z"/>
      <path class="cls-85" d="M25.87,41.95c-.04.36-.07.72-.11,1.08.04-.36.07-.72.11-1.08Z"/>
      <path class="cls-7" d="M151.83,121.91c0-.29,0-.58-.01-.86.67-.04,1.34-.07,2-.11-.66.32-1.33.65-1.99.97Z"/>
      <path class="cls-15" d="M137.86,127.08c-.34-.03-.68-.06-1.02-.09.66,0,1.31,0,1.97.01-.32.01-.64.04-.95.08Z"/>
      <path class="cls-8" d="M24.75,45.05l-.31.34c-.57-.4-.12-.28.31-.34Z"/>
      <path class="cls-15" d="M136.75,130.92c.36-.68.72-1.35,1.08-2.03-.36.67-.72,1.35-1.08,2.03Z"/>
      <path class="cls-27" d="M134.87,132.9c-.04-.68-.02-1.36.03-2.04.32.02.64.04.96.07-.33.66-.66,1.31-1,1.97Z"/>
      <path class="cls-25" d="M140.85,131.94c0,.31,0,.61.02.92-.35-.33-.7-.66-1.04-.99.34.02.69.05,1.03.07Z"/>
      <path class="cls-49" d="M117.87,133.82c.37-.33.73-.66,1.1-.99-.02.4-.05.8-.07,1.2-.34-.07-.69-.14-1.03-.21Z"/>
      <path class="cls-31" d="M58.17,134.97c-.44,0-.88-.02-1.32-.02.61.02,1.22.05,1.83.07-.17,0-.34-.02-.51-.05Z"/>
      <path class="cls-86" d="M117.87,133.82c.34.07.69.14,1.03.21,0,.28,0,.57-.01.85-.65,0-1.31,0-1.96.01.32-.36.63-.71.94-1.07Z"/>
      <path class="cls-83" d="M124.82,138.88c0-.32.02-.63.03-.95.18.4.55.7-.03.95Z"/>
      <path class="cls-24" d="M112.88,147.95c-.06-.61-.12-1.22-.18-1.84.06.61.12,1.22.18,1.84Z"/>
      <path class="cls-71" d="M98.93,10.96c-.03-.32-.06-.65-.06-.97,0,0,0,0,0,0,.67,0,1.33,0,2,0,0,.33,0,.66,0,1-.64,0-1.29-.02-1.93-.03Z"/>
      <path class="cls-11" d="M51.88,12.02c-.3-.05-.6-.1-.9-.14.3.05.6.09.9.14Z"/>
      <path class="cls-67" d="M98.93,10.96c.64,0,1.29.02,1.93.03h0c.01.31.03.62.05.93-.35.05-.71.09-1.06.14-.31-.37-.61-.73-.92-1.1Z"/>
      <path class="cls-79" d="M163.86,65.97l.2-.13s-.32.08-.2.13Z"/>
      <path class="cls-79" d="M130.89,15c-.66-.35-1.33-.69-1.99-1.04.34,0,.68,0,1.02,0,.32.34.65.69.97,1.03Z"/>
      <path class="cls-7" d="M158.56,75.04c-.55-.02-1.1-.04-1.66-.07.55.02,1.1.04,1.66.07Z"/>
      <path class="cls-29" d="M160.9,75.07c-.03.62-.05,1.23-.08,1.85-.34,0-.68,0-1.02,0,.03-.64.07-1.28.1-1.92.33.03.67.05,1,.08Z"/>
      <path class="cls-40" d="M162.84,75.99c.02-.3.04-.6.05-.91.13.23.26.45.39.68-.15.08-.29.15-.44.23Z"/>
      <path class="cls-13" d="M131.85,14.99c0,.67,0,1.33,0,2-.01-.67,0-1.33,0-2Z"/>
      <path class="cls-80" d="M102.9,1.93c.34.69.68,1.37,1.01,2.06-.34-.69-.68-1.37-1.01-2.06Z"/>
      <path class="cls-28" d="M152.87,78.93c-.01-.65-.02-1.31-.03-1.96,0,.66.01,1.31.03,1.96Z"/>
      <path class="cls-6" d="M152.87,78.93c0-.31-.02-.63-.02-.94.66-.14,1.28-.15,1.92.06.03.3.05.6.07.9-.61-.04-1.23-.07-1.84-.1l-.14.08Z"/>
      <path class="cls-13" d="M131.6,18.64c-.59-.22-1.18-.43-1.76-.65.59.22,1.18.43,1.76.65Z"/>
      <path class="cls-30" d="M10.82,82c.64-.05,1.28-.09,1.92-.14-.29.38-.57.76-.86,1.15-.35-.34-.7-.67-1.06-1.01Z"/>
      <path class="cls-13" d="M134.84,20.13c-.66-.38-1.33-.77-1.99-1.15.66.38,1.33.77,1.99,1.15Z"/>
      <path class="cls-19" d="M121.82,3.02c.08.65.09,1.3.07,1.95-.33,0-.66,0-1,0-.03-.62-.06-1.24-.09-1.85.34-.03.68-.06,1.02-.09Z"/>
      <path class="cls-13" d="M51.9,26.01c-.09-.63-.17-1.26-.26-1.89.41-.04.82-.09,1.24-.13h0c0,.65,0,1.31.01,1.97-.34,0-.68.01-1.02.02l.04.04Z"/>
      <path class="cls-54" d="M145.8,28.05c-.35-.69-.7-1.38-1.05-2.07.35.69.7,1.38,1.05,2.07Z"/>
      <path class="cls-26" d="M164.76,98.9c-.29,0-.58,0-.87,0-.06-.62-.07-1.25-.11-1.87.33.62.65,1.24.98,1.86Z"/>
      <path class="cls-54" d="M147.85,29.06c-.69-.35-1.38-.69-2.07-1.04.69.35,1.38.69,2.07,1.04Z"/>
      <path class="cls-5" d="M15.85,103.97c.66.21,1.31.42,1.97.63-.66-.21-1.31-.42-1.97-.63Z"/>
      <path class="cls-67" d="M38.88,34.97c0-.64,0-1.28-.01-1.92.35-.01.7-.03,1.04-.04.1.7.04,1.37-.16,2.05-.29-.02-.57-.04-.86-.07h-.01Z"/>
      <path class="cls-47" d="M44.94,32.98c-.11.62-.22,1.24-.33,1.86.11-.62.22-1.24.33-1.86Z"/>
      <path class="cls-66" d="M40.92,33.86c.47.8.94,1.6,1.4,2.39-.18-.11-.36-.21-.54-.3-.27.02-.55.04-.82.06.02-.71-.3-1.49-.03-2.15Z"/>
      <path class="cls-21" d="M139.82,108.82c.01.34.03.68.04,1.02-.66.16-1.34.11-2.01.09,0-.33.01-.66.02-.99.65,0,1.3-.03,1.95-.12Z"/>
      <path class="cls-67" d="M125.84,10c-.35-.32-.69-.64-1.04-.95.35.32.69.64,1.04.95Z"/>
      <path class="cls-53" d="M77.83,10.02c.01.32.01.63,0,.95-.29-.3-.59-.6-.88-.9.29-.03.59-.04.88-.05Z"/>
      <path class="cls-67" d="M100.86,10.99c0-.33,0-.67,0-1,.33,0,.67,0,1,0,0,.33,0,.66,0,.99-.34,0-.67,0-1.01,0h0Z"/>
      <path class="cls-59" d="M127.78,11.04s.02.02.02.02-.02-.02-.02-.02Z"/>
      <path class="cls-18" d="M126.77,11.08c-.3.29-.6.58-.89.88.02-.44.05-.88.07-1.32.28.13.55.28.82.44Z"/>
      <path class="cls-75" d="M129.92,13.97c-.34,0-.68,0-1.02,0-.02-.34-.04-.68-.06-1.02.36.34.72.68,1.08,1.03Z"/>
      <path class="cls-61" d="M91.83,14.01c.01.31.02.62.02.94-.32,0-.65.01-.97.01.32-.32.63-.63.95-.95Z"/>
      <path class="cls-64" d="M131.85,14.99c0,.33,0,.65,0,.98-.33,0-.66.01-.99.02,0,0,0,0,0,0,0-.33,0-.67,0-1,.33,0,.67,0,1,0Z"/>
      <path class="cls-13" d="M130.85,15.98c.33,0,.66-.01.99-.02,0,.34,0,.68,0,1.02-.33-.33-.67-.67-1-1Z"/>
      <path class="cls-13" d="M52.88,23.98s0,0,0,0c0,0,0,0,0,0Z"/>
      <path class="cls-13" d="M50.89,25.9c.34.04.67.07,1.01.11,0,0-.04-.04-.04-.04.07.27.14.55.19.83,0,0-.23.21-.23.21-.31-.37-.62-.74-.92-1.11Z"/>
      <path class="cls-16" d="M52.05,26.8c-.05-.28-.11-.55-.19-.83.34,0,.68-.01,1.02-.02-.02.34-.04.67-.06,1.01-.25-.08-.51-.13-.77-.16Z"/>
      <path class="cls-25" d="M49.86,31.05c.41.28.82.56,1.23.85-.41-.28-.82-.56-1.23-.85Z"/>
      <path class="cls-39" d="M38.87,33.05c0,.31,0,.63,0,.94-.33-.34-.66-.67-.99-1.01.33.01.65.04.98.07Z"/>
      <path class="cls-83" d="M39.98,34.02c-.02-.34-.05-.68-.07-1.01.34.28.67.57,1.01.85,0,0-.13.3-.12.3-.27-.06-.54-.1-.82-.13Z"/>
      <path class="cls-47" d="M42.86,37.02c-.3-.06-.61-.12-.92-.17,0,0,0,.09,0,.09l-.17-1c.51.19.84.6,1.08,1.08Z"/>
      <path class="cls-40" d="M167.9,40.96c-.35-.32-.7-.64-1.04-.96.35.32.69.64,1.04.96Z"/>
      <path class="cls-40" d="M162.76,43.02c.36.29.72.59,1.08.88-.34,0-.68.01-1.02.02,0,0,.06.04.06.04-.03-.32-.07-.63-.12-.94Z"/>
      <path class="cls-40" d="M166.83,43.92c.35-.31.69-.63,1.04-.94-.35.31-.69.63-1.04.94Z"/>
      <path class="cls-50" d="M162.92,46.89c-.02-.31-.02-.61-.02-.92.31.31.61.61.92.92-.23.02-.68.02-.9,0Z"/>
      <path class="cls-64" d="M12.86,100.96c-.32.33-.64.65-.96.98.32-.33.64-.65.96-.98Z"/>
      <path class="cls-5" d="M10.97,103.91c.33-.27.67-.55,1-.82.02.2.05.39.08.59,0,0-.2.33-.2.33-.29-.03-.58-.06-.87-.1Z"/>
      <path class="cls-77" d="M149.8,73.88c-.36-.02-.73-.04-1.09-.05.38-.29.76-.58,1.14-.87-.01.31-.03.62-.05.93Z"/>
      <path class="cls-76" d="M7.85,106.96s.07-.07.07-.07c0,0-.07.07-.07.07Z"/>
      <path class="cls-77" d="M152.85,75.97c-.33-.34-.67-.67-1-1,.33,0,.65,0,.98,0,0,.34.03.68.02,1.01Z"/>
      <path class="cls-56" d="M152.85,75.95c0-.33-.02-.66-.03-1,.01.33.02.66.03,1Z"/>
      <path class="cls-64" d="M140.84,120.91c-.33-.31-.65-.63-.98-.94.32-.01.63-.02.95-.01,0,.32.02.63.02.95Z"/>
      <path class="cls-15" d="M138.85,121.93c.33,0,.66,0,.99.02,0,.33,0,.66,0,.99-.33-.33-.67-.67-1-1Z"/>
      <path class="cls-15" d="M135.89,122.91c0,.34,0,.69,0,1.03,0,0-.07-.1-.07-.1,0-.29.01-.58.02-.87l.06-.06Z"/>
      <path class="cls-15" d="M139.85,122.93c.4.03.81.05,1.21.08-.05.29-.1.58-.15.87l-.07.06c-.33-.34-.66-.67-.99-1.01Z"/>
      <path class="cls-15" d="M141.89,124.91c-.35,0-.69.01-1.04.02,0-.33,0-.66,0-.99,0,0,.06-.06.06-.06.28.02.56.03.84.04.05.33.1.66.14,1Z"/>
      <path class="cls-10" d="M140.85,126.93v-1s0,0,0,0c0,.33,0,.66,0,.99h0Z"/>
      <path class="cls-15" d="M136.88,126.93c-.34.38-.67.76-1.01,1.15.34-.38.67-.76,1.01-1.15Z"/>
      <path class="cls-75" d="M137.86,127.08c.32-.04.63-.07.95-.08.01.28.02.57.02.85-.33,0-.67,0-1,.01.01-.26.02-.52.03-.78Z"/>
      <path class="cls-15" d="M137.83,127.86c.33,0,.67,0,1-.01-.35.36-.69.71-1.04,1.07.01-.35.02-.71.04-1.06Z"/>
      <path class="cls-83" d="M123.74,138.99c.36-.03.71-.07,1.07-.1-.36.03-.71.07-1.07.1Z"/>
      <path class="cls-84" d="M54.87,140.92s0,0,0,0c0,0,0,0,0,0Z"/>
      <path class="cls-84" d="M55.88,140.9c.33.34.66.68.99,1.02-.33-.34-.66-.68-.99-1.02Z"/>
      <path class="cls-38" d="M107.92,145.9c.3-.04.6-.03.91.01-.3,0-.6,0-.91-.01Z"/>
      <path class="cls-3" d="M110.99,146.16c-.02.24-.05.48-.09.72-.29-.31-.58-.61-.87-.92.32.06.65.13.97.2Z"/>
      <path class="cls-24" d="M110.88,146.91c.32.34.64.68.97,1.02-.32-.34-.64-.68-.97-1.02Z"/>
      <path class="cls-15" d="M136.67,110.86c.13.38.25.75.38,1.13-.55-.27-1.16.09-1.75.04-1.02-.14-1.62-1.48-2.46-2.1,0,.33-.02.65-.03.98.7.37,1.41.74,2.11,1.11-5.26,3.47-8.81-1.11-11.1-5.08-.17-.24-.69-.71-.91-1.09-.02-.31-.04-.62-.07-.92,0,0,0,0,0,0,1,0,2-.15,2.99.04.65.64,1.3,1.28,1.96,1.93.35.01.7.03,1.05.04.34.33.67.67,1.01,1-.77-.97-1.95-1.71-2.05-3.04.28-.28.54-.59.82-.88.45-.05.91-.11,1.36-.16,0,0-.13.04-.13.04,2.2,1.47,4.19,3.1,5.97,5.06.02.28.04.56.07.84.26.36.53.72.79,1.07Z"/>
      <path class="cls-59" d="M10.92,77.97c-2.1-.41-4.1-1.07-6.01-2.04,1-.69,1.99-1.37,2.99-2.06,2.1-.05,3.88,1.18,5.98,1.1-.99,1-1.97,2-2.96,3Z"/>
      <path class="cls-43" d="M163.84,97.91c.13,1.7-.64,3.32-.97,4.97-1.15-1.27-2.31-2.54-3.46-3.8,1.48-.39,2.95-.78,4.43-1.17Z"/>
      <path class="cls-55" d="M37.9,52.05c-.72-1.28-1.45-2.56-2.17-3.85.08-1.2.16-2.39.24-3.58,1.09,2.1,2.18,4.19,3.27,6.29-.55,0-.85.45-1.23.78l-.11.37Z"/>
      <path class="cls-29" d="M96.89,16.02c.66,0,1.31,0,1.97,0,0,.31,0,.62-.01.93.63.28,1.26.57,1.89.85l.13,1.08c-3.03-.25-6.06-.49-9.1-.74,1.69-.05,3.38-.11,5.07-.16.14-.65.04-1.31.06-1.97Z"/>
      <path class="cls-57" d="M100.87,18.89c-.04-.36-.09-.72-.13-1.08-.29-.29-.59-.58-.89-.87,0-.33,0-.66,0-.99,1.33-.99,2.67-1.98,4-2.98-.03.71-.06,1.43-.09,2.14l-.32.27c.05.23.3.52.5.63-.69.6-1.38,1.2-2.07,1.8,0,.37,0,.75-.01,1.12-.34-.02-.67-.04-1.01-.06Z"/>
      <path class="cls-67" d="M125.02,11.91c-.07.38-.13.77-.2,1.15-1.29.26-2.58.51-3.87.77-.03-1.23-.17-2.46-.07-3.69,1.38.59,2.76,1.18,4.14,1.77Z"/>
      <path class="cls-54" d="M128.82,95.98c1.22-.39,2.43-.78,3.65-1.17-.53,1.04-1.07,2.08-1.6,3.12-.68-.65-1.36-1.3-2.04-1.95Z"/>
      <path class="cls-28" d="M35.91,40.91c.05-1,.02-1.98-.03-2.98,0,0,.05.06.05.06,0-.34,0-.69,0-1.03,1.12-.14,2.02.62,3,1.05.32.67.65,1.33.97,2l-.03-.08c.02.4.1.82-.03,1.21l-.87.73c-1.04.02-2.08.04-3.12.07,0,0,.05.03.05.03,0-.35,0-.7,0-1.05Z"/>
      <path class="cls-86" d="M59.78,16.06c1.36-.03,2.72-.07,4.09-.1.67.68,1.33,1.35,2,2.03-.02,1.39.05,2.78.05,4.17-.35-.07-.69-.13-1.04-.2,0-.66,0-1.32,0-1.98l-5.09-3.91Z"/>
      <path class="cls-29" d="M103.77,15.13c.03-.71.06-1.43.09-2.14.63-.65,1.25-1.3,1.87-1.94,0,0,.16-.09.16-.09.31-.31.61-.62.92-.93.38,0,.75.01,1.13.02-.03.98-.06,1.96-.09,2.94-1.11,1.23-2.58,2.05-3.9,3.04,0,0-.34-.26-.34-.26.06-.21.11-.43.15-.65Z"/>
      <path class="cls-27" d="M69.73,53.09c-.53-.61-1.05-1.22-1.58-1.82,1.18.58,2.36,1.16,3.55,1.74-.66.03-1.31.06-1.97.08Z"/>
      <path class="cls-35" d="M65.9,20.95c-.02-.68-.03-1.36-.05-2.04,1.07-.32,2.14-.64,3.21-.96-.45,1.38-.9,2.75-1.35,4.13-.61-.37-1.21-.75-1.82-1.12Z"/>
      <path class="cls-70" d="M107.94,7.8c-.33-.29-.66-.58-.99-.86.28-.97.55-1.94.83-2.91,1.16-.13,2.13.39,3.15.86l-.1.14c.15,1.11-.61,2-1.01,2.98-.64.01-1.26-.05-1.88-.21Z"/>
      <path class="cls-13" d="M65.86,17.99c-.67-.68-1.33-1.35-2-2.03.02-.37.07-.76-.02-1.13,1.38.32,2.73.76,4.09,1.14,0,.31,0,.63,0,.94-.69.36-1.38.71-2.07,1.07Z"/>
      <path class="cls-57" d="M35.98,44.62c-.08,1.19-.16,2.39-.24,3.58.06-2.08.11-4.16.17-6.25,0,0-.05-.03-.05-.03.04.9.08,1.8.12,2.7Z"/>
      <path class="cls-76" d="M21.93,87.02c-.33-.37-.66-.73-.99-1.1,0,0-.05.05-.05.05,1.36-.04,2.72-.25,4.07-.02.34.61.68,1.22,1.02,1.83-.99.1-1.97.34-2.97.13-.36-.3-.72-.59-1.08-.89Z"/>
      <path class="cls-43" d="M39.88,42.98c-.12-.7-.11-1.46.04-2.15.03-.3.02-.61-.05-.91.1.05.08-.74.13-1.03.3-.32.6-.63.9-.95.27.08.54.16.81.23.1.94.19,1.88.29,2.82-.71.66-1.42,1.32-2.13,1.98Z"/>
      <path class="cls-56" d="M77.83,13.93c1.14-.11,2.04.58,3.03,1.04,0,0,.08.18.08.18-.01.3-.04.6-.09.9,0,0,.07-.08.07-.08-1.68-.33-3.37-.67-5.05-1,.65-.35,1.3-.7,1.96-1.05Z"/>
      <path class="cls-57" d="M118.86,135.81c-.01.69-.03,1.39-.04,2.08-1.12-.21-2.23-.42-3.35-.63,1.13-.49,2.26-.97,3.39-1.46Z"/>
      <path class="cls-54" d="M127.81,100.93c-.66-.37-1.31-.75-1.97-1.12-.03-.4-.06-.79-.09-1.19.36-.22.73-.44,1.09-.66.94.36,1.88.72,2.83,1.08,0,0,.06-.02.06-.02.13.62.2,1.23.12,1.87-.68.01-1.36.02-2.03.04Z"/>
      <path class="cls-57" d="M42.91,53.94c-.62-.68-1.23-1.37-1.85-2.05.55.03,1.09.06,1.64.09.73.66,1.46,1.31,2.19,1.97-.3.04-.59.08-.89.11-.31-.22-.74-.28-1.09-.12Z"/>
      <path class="cls-36" d="M67.94,15.98c-1.05-.3-2.09-.61-3.14-.92.36-.36.72-.73,1.08-1.09,1.01,0,2.02.1,3.04.08-.01.64-.02,1.27-.03,1.91-.31.02-.63.02-.94.02Z"/>
      <path class="cls-33" d="M69.73,53.09c1.75-.06,3.5-.18,5.25-.28,0,0-.23.4-.23.4-.3.26-.6.51-.89.77-1.37-.29-2.75-.59-4.12-.88Z"/>
      <path class="cls-6" d="M162.8,53.18c0,.3.02.6.04.9-1.66-.05-3.35.18-4.98-.17-.01-.3-.02-.6-.04-.9,1.27-1.85,3.32-.25,4.98.17Z"/>
      <path class="cls-30" d="M120.83,11c.04.94.08,1.89.12,2.83-1.09-.79-2.06-1.72-2.93-2.74-.18-.02-.36-.05-.53-.09.09-.32.18-.64.26-.96.75.02,1.5.04,2.25.06.27.3.55.6.82.9Z"/>
      <path class="cls-8" d="M129.66,99.04c-.94-.36-1.88-.72-2.83-1.08.66-.66,1.32-1.32,1.98-1.97.68.65,1.36,1.3,2.04,1.95-.4.37-.8.74-1.19,1.1Z"/>
      <path class="cls-42" d="M72.76,16.03c.43.6.86,1.21,1.3,1.81-.74-.24-1.48-.47-2.21-.71.31-.37.61-.74.92-1.1Z"/>
      <path class="cls-10" d="M42.7,51.98c-.55-.03-1.09-.06-1.64-.09-.21-.73-.66-1.31-1.11-1.92-.02-.32,0-.63.06-.94.29,0,.57-.03.86-.06.61,1,1.22,2.01,1.83,3.01Z"/>
      <path class="cls-43" d="M65.86,17.99c.69-.36,1.38-.71,2.07-1.07.38.34.75.69,1.13,1.03-1.07.32-2.14.64-3.21.96,0-.31,0-.61,0-.92Z"/>
      <path class="cls-58" d="M115.74,11.16c-.67-.68-1.34-1.35-2.01-2.03,0,0,.13-.17.13-.17.68.65,1.36,1.3,2.04,1.95l-.17.24Z"/>
      <path class="cls-3" d="M96.86,141.75c-1.63.03-3.25.05-4.88.08.3-.31.59-.62.89-.93,1.38-.07,2.66.54,3.99.84Z"/>
      <path class="cls-60" d="M26.65,88.88c-.95.75-1.9,1.49-2.85,2.24-.31-.03-.61-.04-.92-.02,0,0,.04-.34.04-.34,0-.27-.02-.53-.02-.8,0,0,0,0,0,0,.42-.06.84-.12,1.25-.18.15-.24.32-.48.49-.7.67-.07,1.34-.13,2.02-.2Z"/>
      <path class="cls-14" d="M138.83,96.95c-.38-.6-.77-1.19-1.15-1.79.39.27.79.53,1.18.8,0,.33-.01.66-.02.99Z"/>
      <path class="cls-78" d="M144.83,76.97c-.24-.54-.47-1.08-.71-1.62.55-.09,1.11-.18,1.66-.27-.32.63-.63,1.26-.95,1.89Z"/>
      <path class="cls-21" d="M43.01,38.73c.63.09,1.27.18,1.9.27.29.72.58,1.44.87,2.16-.34.28-.68.56-1.02.84-.58-1.09-1.17-2.18-1.75-3.27Z"/>
      <path class="cls-21" d="M39.88,42.98c.71-.66,1.42-1.32,2.13-1.98.28.67.56,1.34.85,2.01-.31.32-.63.64-.94.95-.36,0-.71.02-1.07.03-.32-.34-.64-.67-.96-1.01Z"/>
      <path class="cls-40" d="M126.87,92.95c-.14-.23-.28-.45-.41-.68.8.23,1.59.46,2.39.69-.66,0-1.32,0-1.97-.01Z"/>
      <path class="cls-31" d="M157.85,53.91c.35.06.7.12,1.06.19,0,.61,0,1.22.01,1.83-1.02.01-2.05.02-3.07.04.47-.88,1.17-1.52,2-2.06Z"/>
      <path class="cls-45" d="M157.88,95.89c0-.63,0-1.26.01-1.89-.07.63-.07,1.26-.01,1.89Z"/>
      <path class="cls-3" d="M90.81,141.87c-.29.07-.58.13-.86.18.31-.69.61-1.38.92-2.07-.02.63-.04,1.26-.06,1.89Z"/>
      <path class="cls-44" d="M40.84,43.99c.7-.02,1.41-.03,2.11-.03.3.35.6.7.9,1.05-.35.35-.7.71-1.04,1.06-.32-.04-.65-.09-.97-.13-.32-.32-.63-.63-.95-.95-.02-.34-.04-.67-.06-1.01Z"/>
      <path class="cls-77" d="M77.83,13.93c-.65.35-1.3.7-1.96,1.05-.25,0-.75.01-.99,0,0-.67-.02-1.33-.03-2,1-.02,1.99.04,2.99.08,0,.29,0,.58-.01.87Z"/>
      <path class="cls-32" d="M60.85,14c-.99-.34-1.98-.68-2.97-1.01,1.33,0,2.66,0,3.99,0,0,0,0,0,0,0,0,.33,0,.65.02.98-.35,0-.69.02-1.04.03Z"/>
      <path class="cls-36" d="M150.74,79.07c.44,1.23-.84,1.25-1.74,1.79-.39-.59-.78-1.19-1.17-1.78.01-.17.03-.35.05-.52.91.38,1.89.4,2.86.51Z"/>
      <path class="cls-62" d="M29.51,77.67c-.09-.43.07-.54.48-.56,0,.23-.01.46-.02.68-.15-.04-.31-.09-.46-.13Z"/>
      <path class="cls-4" d="M78.78,50.98c.08-.27.16-.54.24-.81.32.25.63.5.94.75-.39.02-.79.04-1.18.06Z"/>
      <path class="cls-77" d="M159.74,52.11c-.24,0-.72,0-.96,0-.65-.41-1.29-.81-1.93-1.22,0-.24,0-.48,0-.72,1.01.29,2.01.58,3.02.87-.04.36-.08.71-.12,1.07Z"/>
      <path class="cls-71" d="M12.87,70.99c-.25-.3-.5-.6-.75-.89.26-.06.52-.13.79-.19-.01.36-.03.72-.04,1.08Z"/>
      <path class="cls-58" d="M109.82,8.01c.34-.7.67-1.39,1.01-2.09.35.08.7.15,1.06.23-.4.63-.55,1.51-1.16,1.96-.3-.01-.61-.05-.91-.1Z"/>
      <path class="cls-43" d="M129.96,103.85c-.74.09-1.47.17-2.21.23v-.12c-.29-.28-.6-.56-.9-.84l-.02-.15c.4-.4.81-.8,1.21-1.2.59.4,1.17.81,1.76,1.21.06.29.11.57.16.86Z"/>
      <path class="cls-65" d="M74.97,52.81c.41.4.81.8,1.22,1.21-.45-.03-.91-.06-1.36-.1-.03-.24-.06-.47-.09-.71l.23-.4Z"/>
      <path class="cls-25" d="M73.92,55.94c-1.07,0-2.13,0-3.2,0,1.07,0,2.13,0,3.2,0Z"/>
      <path class="cls-39" d="M73.92,55.94c-1.07,0-2.13,0-3.2,0,1.07,0,2.13,0,3.2,0Z"/>
      <path class="cls-3" d="M90.81,141.87c.02-.63.04-1.26.06-1.89.67-.01,1.33-.02,2-.04,0,.32,0,.64,0,.95-.3.31-.6.62-.89.93-.39.01-.78.03-1.17.04Z"/>
      <path class="cls-5" d="M129.8,102.99c-.59-.4-1.17-.81-1.76-1.21-.07-.29-.14-.59-.22-.88,0,0-.02.02-.02.02.68-.01,1.36-.02,2.03-.04.01.7-.01,1.4-.04,2.1Z"/>
      <path class="cls-58" d="M113.73,9.13c-1-.34-2-.69-3-1.03,0,0,.27-.2.27-.2.95.35,1.91.7,2.86,1.06l-.13.17Z"/>
      <path class="cls-42" d="M61.86,12.99c1.01-.02,2.02-.04,3.03-.06-1.01.08-2.02.05-3.02.05h0Z"/>
      <path class="cls-66" d="M74.86,12.98c0,.67.02,1.33.03,2-.34-.66-.68-1.33-1.01-1.99.33-.08.66-.09.99-.01Z"/>
      <path class="cls-15" d="M87.86,17.98c1.08.03,2.17.05,3.25.08-1.08-.03-2.17-.05-3.25-.08Z"/>
      <path class="cls-33" d="M65.9,20.95c.61.37,1.21.75,1.82,1.12-.6.03-1.21.05-1.81.08,0-.4,0-.8-.01-1.2Z"/>
      <path class="cls-30" d="M28.88,48.97c0-.33,0-.67,0-1,.38.02.76.04,1.14.06-.38.31-.76.63-1.14.94Z"/>
      <path class="cls-75" d="M39.9,51.05c-.67.33-1.33.66-2,1,0,0,.11-.37.11-.37.28-.17.52-.39.72-.66.36-.08.87-.25,1.17.03Z"/>
      <path class="cls-7" d="M157.85,53.91c-.41.31-.83.61-1.24.92.4-.61.8-1.22,1.21-1.82.01.3.02.6.04.9Z"/>
      <path class="cls-55" d="M44,54.06c.3-.03.6-.06.89-.11.34.3.69.61,1.03.91-.01.43-.03.85-.04,1.28-.64-.47-1.28-.93-1.92-1.4.01-.23.03-.46.04-.69Z"/>
      <path class="cls-70" d="M18.81,69c-.31.32-.61.63-.92.95.31-.32.61-.63.92-.95Z"/>
      <path class="cls-6" d="M9.93,74.07c-.68-.06-1.35-.13-2.03-.19.36-.31.72-.61,1.07-.92.63,0,1.27,0,1.9.01,0,0,0-.02,0-.02-.31.38-.62.75-.94,1.13Z"/>
      <path class="cls-5" d="M13.88,74.97c-.61-.04-1.22-.09-1.83-.13-.06-.28-.1-.56-.15-.85l.98-1.04c.33.67.66,1.34,1,2.02Z"/>
      <path class="cls-40" d="M144.85,79.95c-.33,0-.66,0-.99,0,.33,0,.66,0,.99,0Z"/>
      <path class="cls-73" d="M143.79,85.01c.26.15.52.3.79.45-.25.16-.51.31-.76.47,0-.31-.01-.61-.02-.92Z"/>
      <path class="cls-56" d="M26.65,88.88c-.86.1-1.73.11-2.57.33l-.21-.32c0-.29,0-.57,0-.86.7-.08,1.4-.16,2.09-.25.23.36.45.73.68,1.09Z"/>
      <path class="cls-77" d="M157.88,95.89c-.02-.31-.04-.62-.05-.93.3-.3.6-.6.9-.9-.28.61-.57,1.22-.85,1.82Z"/>
      <path class="cls-8" d="M129.89,99.93c-.07-.3-.13-.6-.17-.91.69.65,1.39,1.3,2.08,1.95-.64-.35-1.27-.7-1.91-1.04Z"/>
      <path class="cls-71" d="M129.89,99.93c.64.35,1.27.7,1.91,1.04-.65.3-1.31.6-1.96.89,0-.65,0-1.29.05-1.94Z"/>
      <path class="cls-80" d="M127.83,100.9c.07.29.15.59.22.88-.4.4-.81.8-1.21,1.2-.32-.01-.65-.03-.97-.06l1.96-2.01Z"/>
      <polygon class="cls-28" points="26.57 110.59 26.87 110.57 26.74 110.83 26.57 110.59"/>
      <path class="cls-21" d="M137.05,111.99c.27-.02.54-.04.81-.06-.64.28-1.28.56-1.92.84.24-.3.48-.61.73-.91,0,0,.39.13.39.13Z"/>
      <path class="cls-37" d="M139.89,118.01c-.05.28-.1.56-.16.84-.64,0-1.27.02-1.91.03.69-.29,1.38-.57,2.06-.86Z"/>
      <path class="cls-32" d="M47.98,133.87c.31-.34.62-.68.92-1.01-.31.34-.62.68-.92,1.01Z"/>
      <path class="cls-50" d="M44.76,42.01c.34-.28.68-.56,1.02-.84.03.62.07,1.23.11,1.85-.33-.02-.66-.05-.99-.1-.04-.31-.08-.61-.13-.92Z"/>
      <path class="cls-33" d="M162.92,41.94c.32-.36.63-.72.95-1.08-.32.36-.63.72-.95,1.08Z"/>
      <path class="cls-10" d="M27.68,45.16c.39-.38.78-.77,1.17-1.15.07.27.12.54.15.81-.35.38-.7.77-1.05,1.15-.1-.27-.2-.54-.27-.82Z"/>
      <path class="cls-73" d="M42.79,132.03l.14-.23s-.12.36-.14.23Z"/>
      <path class="cls-83" d="M43.88,45.97c-.36.04-.71.07-1.07.11,0,0,.17-.18.17-.18.3.03.6.05.9.07Z"/>
      <path class="cls-11" d="M48.85,133.96l.32.13c-.05-.01-.28-.26-.32-.13Z"/>
      <path class="cls-58" d="M107.94,7.8c.32.07.63.13.95.19-.34.67-.69,1.34-1.03,2.01.03-.73.05-1.46.08-2.19Z"/>
      <path class="cls-70" d="M112.83,13.96c-.33.01-.65.02-.98.03.33-.01.65-.02.98-.03Z"/>
      <path class="cls-11" d="M156.83,50.16c0,.24,0,.48,0,.72-.12-.19-.24-.37-.36-.56.12-.06.24-.11.36-.17Z"/>
      <path class="cls-46" d="M64.77,143.83c-.3-.63-.6-1.26-.9-1.89.3.63.6,1.26.9,1.89Z"/>
      <path class="cls-69" d="M78.78,50.98c.39-.02.79-.04,1.18-.06-.39.02-.79.04-1.18.06Z"/>
      <path class="cls-53" d="M28.9,55.99c0-.36.02-.71.02-1.07.33.01.67.03,1,.04l-1.03,1.03Z"/>
      <path class="cls-23" d="M45.88,56.15c.01-.43.03-.85.04-1.28-.01.43-.03.85-.04,1.28Z"/>
      <path class="cls-58" d="M117.84,11.97c-.7-.27-1.4-.54-2.1-.81,0,0,.17-.24.17-.24.71.05,1.42.06,2.11.18-.09.3-.16.61-.2.92l.02-.04Z"/>
      <path class="cls-86" d="M118.78,11.94c.36.35.72.69,1.07,1.04-.67-.34-1.34-.67-2.01-1.01.16.11.64-.04.93-.03Z"/>
      <path class="cls-2" d="M12.87,70.99c.01-.36.03-.72.04-1.08.34.36.69.73,1.03,1.09-.35,0-.71,0-1.06,0h0Z"/>
      <path class="cls-41" d="M63.89,12.99c.33-.02.67-.04,1-.06.33.35.66.69.99,1.04,0,0,0,0,0,0-.67,0-1.34,0-2.01-.01v.02c0-.33,0-.66.02-1Z"/>
      <path class="cls-71" d="M10.87,72.97c-.63,0-1.27,0-1.9-.01.63-.32,1.27-.65,1.9-.97,0,.33,0,.65,0,.98Z"/>
      <path class="cls-64" d="M68.88,15.96c0-.64.02-1.27.03-1.91.3-.02.6-.04.91-.05-.01.63-.02,1.25-.04,1.88-.3.03-.6.05-.9.07Z"/>
      <path class="cls-21" d="M69.79,15.89c.01-.63.02-1.26.04-1.88.35.68.71,1.35,1.06,2.03,0,0,.05-.05.05-.05-.38-.03-.77-.07-1.15-.1Z"/>
      <path class="cls-43" d="M144.83,76.97c.32-.63.63-1.26.95-1.89,0,.61-.02,1.23-.03,1.84-.29,0-.59,0-.89.02l-.04.03Z"/>
      <path class="cls-77" d="M146.93,74.95c.34.35.68.69,1.02,1.04-.06.32-.11.63-.17.95-.32,0-.64.01-.96.02.04-.67.07-1.33.11-2Z"/>
      <path class="cls-78" d="M72.76,16.03c-.31.37-.61.74-.92,1.1-.3-.38-.6-.76-.91-1.14,0,0-.05.05-.05.05.62,0,1.25,0,1.87-.01Z"/>
      <path class="cls-31" d="M146.82,76.95c.32,0,.64,0,.96-.01.03.71.15,1.43.06,2.14-.34-.71-.68-1.42-1.02-2.13Z"/>
      <path class="cls-39" d="M149,80.86c.62-.3,1.25-.6,1.87-.9-.03.31-.06.62-.1.94-.59-.01-1.18-.02-1.77-.03Z"/>
      <path class="cls-85" d="M20.89,82.95c-.67-.34-1.35-.69-2.02-1.03.67.34,1.35.69,2.02,1.03Z"/>
      <path class="cls-64" d="M151.82,81.89c.34.34.67.69,1.01,1.03-.34-.34-.67-.69-1.01-1.03Z"/>
      <path class="cls-27" d="M21.86,83.73c.7.39,1.4.77,2.09,1.16,0,0-.26.22-.26.22-.52-.29-1.05-.57-1.58-.86-.08-.18-.17-.35-.26-.53Z"/>
      <path class="cls-83" d="M72.9,22.94c-.11-.36-.41-.71-.03-1,0,.33.02.67.03,1Z"/>
      <path class="cls-2" d="M126.87,92.95c.66,0,1.32,0,1.97.01-.66,0-1.32,0-1.97-.01Z"/>
      <path class="cls-49" d="M138.83,96.95c0-.33.02-.66.02-.99,0,.33-.02.66-.02.99Z"/>
      <path class="cls-77" d="M26.92,101.9c.63-.01,1.26-.03,1.89-.04-.63.01-1.26.02-1.89.04Z"/>
      <path class="cls-36" d="M26.92,101.9c.63-.01,1.26-.02,1.89-.04-.63.01-1.26.02-1.89.04Z"/>
      <path class="cls-75" d="M54.86,28.99c.35.02.71.04,1.06.06-.35-.02-.71-.04-1.06-.06Z"/>
      <path class="cls-47" d="M124.99,104.87c-.72.02-1.44.04-2.15.06.66-.29,1.29-.66,1.96-.91.05.28.12.57.2.84Z"/>
      <path class="cls-9" d="M21.82,106.77c0-.56,0-1.12,0-1.68,0,.56,0,1.12,0,1.68Z"/>
      <path class="cls-59" d="M135.56,105.05c-.59.31-1.19.62-1.78.93.59-.31,1.19-.62,1.78-.93Z"/>
      <path class="cls-47" d="M123.82,106.94c.33.61.67,1.21,1,1.82-.33-.61-.67-1.21-1-1.82Z"/>
      <path class="cls-30" d="M15.87,108.77c0-.23,0-.47,0-.7.13.3.47.53,0,.7Z"/>
      <path class="cls-69" d="M106.95,13.9c.3-.3.6-.6.9-.9-.3.3-.6.6-.9.9Z"/>
      <path class="cls-45" d="M112.83,13.96c-.33.01-.65.02-.98.03.32-.09.65-.1.98-.03Z"/>
      <path class="cls-67" d="M124.8,13.01c.36,0,.72.01,1.08.02-.34.32-.68.64-1.02.96-.04-.33-.06-.65-.06-.98Z"/>
      <path class="cls-77" d="M67.72,14.05c-.27,0-.54-.03-.81-.05.27.01.54.03.81.05Z"/>
      <path class="cls-59" d="M101.87,18.95c0-.37,0-.75.01-1.12,0,.37,0,.75-.01,1.12Z"/>
      <path class="cls-41" d="M72.9,22.94c-.01-.33-.02-.67-.03-1,0,.33.02.67.03,1Z"/>
      <path class="cls-62" d="M58.83,23.99c.36,0,.72,0,1.08,0,0,.34.01.68.02,1.02-.36-.01-.72-.03-1.08-.04.12-.03-.04-.69-.02-.97Z"/>
      <path class="cls-21" d="M41.71,38.18c-.27-.07-.54-.15-.81-.23.03-.34.07-.68.1-1.02.31,0,.63.01.94.02,0,0,0-.09,0-.09-.08.44-.15.88-.23,1.33Z"/>
      <path class="cls-56" d="M39.84,41.13c-.02.38-.03.76-.05,1.13-.29-.11-.56-.25-.82-.4.29-.24.58-.49.88-.73Z"/>
      <path class="cls-17" d="M42.95,43.96c-.35,0-.7,0-1.05,0,.32-.32.63-.64.94-.95.03.32.07.64.1.95Z"/>
      <path class="cls-21" d="M44.89,42.92c.33.04.66.08.99.1-.33-.03-.66-.06-.99-.1Z"/>
      <path class="cls-50" d="M162.76,43.02c.05.31.09.63.12.94-.34,0-.69,0-1.03-.01.3-.31.61-.62.91-.93Z"/>
      <path class="cls-76" d="M40.9,44.99c.32.32.63.63.95.95-.32-.32-.63-.63-.95-.95Z"/>
      <path class="cls-25" d="M43.88,45.97c-.3-.02-.6-.04-.9-.07.29-.3.58-.59.87-.89.02.32.02.64.02.95Z"/>
      <path class="cls-57" d="M40.87,48.97c-.29.03-.57.05-.86.06.27-.2.56-.22.86-.06Z"/>
      <path class="cls-20" d="M62.88,49.97h0s0,0,0,0Z"/>
      <path class="cls-57" d="M39.96,49.97c.28.4.56.8.85,1.2-.3-.05-.6-.09-.9-.12,0,0-.11-.11-.11-.11.05-.33.1-.65.17-.97Z"/>
      <path class="cls-45" d="M62.87,49.98s0,0,0,0,0,0,0,0Z"/>
      <path class="cls-16" d="M22.87,91.09c.31-.01.62,0,.92.02-.3.28-.6.55-.89.82-.01-.28-.02-.56-.03-.85Z"/>
      <path class="cls-65" d="M29.93,54.96c-.33-.01-.67-.03-1-.04-.02-.32-.03-.65-.04-.97.35.34.7.67,1.05,1.01Z"/>
      <path class="cls-59" d="M158.74,94.06c-.3.3-.6.6-.9.9,0-.32.03-.64.06-.96.28,0,.56.02.84.06Z"/>
      <path class="cls-77" d="M18.81,69c-.31.32-.61.63-.92.95.31-.32.61-.63.92-.95Z"/>
      <path class="cls-57" d="M44,54.06c-.02.23-.03.46-.04.69-.35-.27-.7-.54-1.05-.81,0,0,.31-.1.31-.1.26.02.56.05.78.22Z"/>
      <path class="cls-5" d="M12.88,71c.35,0,.71,0,1.06,0-.35,0-.71,0-1.06,0Z"/>
      <path class="cls-50" d="M125.75,98.62c.03.4.06.79.09,1.19-.03-.4-.06-.79-.09-1.19Z"/>
      <path class="cls-5" d="M10.87,72.97c0-.33,0-.65,0-.98.33.24.66.48.99.72,0,0,.09.38.09.38-.36-.05-.72-.1-1.09-.14v.02Z"/>
      <path class="cls-16" d="M124.73,104.03c.38-.37.76-.74,1.14-1.11-.33.36-.72.74-1.08,1.1,0,0-.06,0-.06,0Z"/>
      <path class="cls-56" d="M74.74,53.21c.03.24.05.48.09.71-.24.05-.74.07-.98.06.3-.26.6-.51.89-.77Z"/>
      <path class="cls-59" d="M131.22,104.92c-.46-.35-.92-.69-1.38-1.04.46.35.92.69,1.38,1.04Z"/>
      <path class="cls-58" d="M12.88,72.96c-.33.35-.66.69-.98,1.04,0-.43.11-.88-.04-1.3.34.08.68.17,1.02.26Z"/>
      <path class="cls-47" d="M122.84,104.92c.03.31.05.62.07.92-.23-.29-.26-.6-.07-.92Z"/>
      <path class="cls-9" d="M19.94,106.78c.3-.11.59-.1.89,0-.22,0-.67,0-.89,0Z"/>
      <path class="cls-47" d="M122.95,105.94c.3.34.6.68.9,1.03-.3-.34-.6-.68-.9-1.03Z"/>
      <path class="cls-59" d="M133.72,106.88c-.28-.29-.56-.59-.84-.88.33-.04.67-.07,1-.11-.06.33-.11.66-.16.99Z"/>
      <path class="cls-54" d="M136.65,111.86c-.24.3-.48.61-.73.91-.09-.25-.17-.5-.25-.75.33-.05.65-.11.98-.16Z"/>
      <path class="cls-65" d="M142.83,113.93c.31.31.62.62.94.93-.31-.31-.62-.62-.94-.93Z"/>
      <path class="cls-77" d="M144.86,76.94c.3-.02.59-.02.89-.02,0,0-.44.13-.44.13l-.45-.11Z"/>
      <path class="cls-16" d="M60.01,7.91c.25-.24.49-.48.74-.72-.25.24-.49.48-.74.72Z"/>
      <path class="cls-20" d="M144.85,79.95c-.33,0-.66,0-.99,0,.33-.05.66-.05.99,0Z"/>
      <path class="cls-37" d="M58.85,8c.33,0,.65,0,.98-.01-.33,0-.65,0-.98.01Z"/>
      <path class="cls-29" d="M47.98,133.87c.31-.34.62-.67.92-1.01-.02.36-.03.73-.05,1.09,0,0,.05-.05.05-.05-.31,0-.62,0-.93-.03Z"/>
      <path class="cls-27" d="M24.95,85.95c-.38-.04-.77-.08-1.15-.13-.03-.24-.07-.47-.12-.71,0,0,.26-.22.26-.22.34.35.67.7,1,1.05Z"/>
      <path class="cls-76" d="M143.79,85.01c0,.31.02.61.02.92-.06-.3-.06-.61-.02-.92Z"/>
      <path class="cls-3" d="M92.88,140.9c0-.32,0-.64,0-.95.33.32.67.65,1,.97-.33,0-.67-.01-1-.02Z"/>
      <path class="cls-12" d="M81.86,143.93c0,.35,0,.7,0,1.04,0-.35,0-.7,0-1.04Z"/>
      <path class="cls-12" d="M81.83,144.89c.36.41.72.81,1.07,1.22-.36-.41-.72-.81-1.07-1.22Z"/>
      <path class="cls-54" d="M144.84,131.93c-.68-.34-1.37-.69-2.05-1.03.02-.31.03-.62.03-.94,1.34.34,2.67.68,4.01,1.02-.66.32-1.32.63-1.98.95Z"/>
      <path class="cls-75" d="M141.74,123.92c-.28,0-.56-.02-.84-.04.05-.29.09-.58.15-.87,1,.31,1.99.62,2.99.94-.45.28-.89.57-1.34.85-.32-.29-.64-.59-.96-.88Z"/>
      <path class="cls-45" d="M145.81,121.94c.66-.32,1.32-.64,1.98-.96-.26.65-.52,1.3-.78,1.94-.41-.32-.78-.7-1.2-.98Z"/>
      <path class="cls-52" d="M150.83,123.95c0,.3-.02.59-.04.89-.13-.22-.26-.45-.4-.67.14-.07.29-.15.43-.22Z"/>
      <path class="cls-37" d="M144.84,131.93c.66-.32,1.32-.63,1.98-.95-.01.31-.03.62-.06.92-.64,0-1.29.02-1.93.03Z"/>
      <path class="cls-56" d="M145.85,121.95c.39.32.77.65,1.16.98-.39-.32-.78-.65-1.16-.98Z"/>
      <path class="cls-26" d="M153.76,123.91c-.34,0-.69,0-1.03,0,.34,0,.69,0,1.03,0Z"/>
      <path class="cls-8" d="M141.74,123.92c.32.29.64.59.96.88-.27.05-.55.08-.82.11-.05-.33-.1-.66-.14-1Z"/>
      <path class="cls-56" d="M145.86,124.92c-.34-.33-.67-.66-1.01-.99.33,0,.68.01,1.02.01,0,.32,0,.65,0,.97Z"/>
      <path class="cls-27" d="M145.86,124.92c0-.32,0-.65,0-.97.05.32.05.65,0,.97Z"/>
      <path class="cls-56" d="M140.85,126.93c0-.33,0-.66,0-.99.05.33.05.66,0,.99Z"/>
      <path class="cls-37" d="M142.81,129.96c0,.31,0,.63-.03.94-.31,0-.61.02-.91.02.31-.32.63-.64.94-.96Z"/>
      <path class="cls-25" d="M61.77,22.94c-.3-.61-.6-1.22-.91-1.83.3.61.6,1.22.91,1.83Z"/>
      <path class="cls-16" d="M54.02,15.79c.22-.22.44-.43.65-.65-.21.22-.43.44-.65.65Z"/>
      <path class="cls-63" d="M64.87,19.98c0,.33,0,.67,0,1-.34,0-.68,0-1.02.01h0c.34-.34.67-.68,1.01-1.02Z"/>
      <path class="cls-25" d="M59.85,21.05c-.33.03-.65-.03-.94-.2.31.06.63.13.94.2Z"/>
      <path class="cls-16" d="M63.86,20.99s0,0,0,0c0,0,0,0,0,0Z"/>
      <path class="cls-47" d="M18.82,90.98c1.03,0,2.06-.01,3.09-.02-1.03,0-2.06.01-3.09.02Z"/>
      <path class="cls-47" d="M17.67,86.98c.09.64.18,1.29.28,1.93-.09-.64-.18-1.29-.28-1.93Z"/>
      <path class="cls-47" d="M17.84,89.86c.03.31.06.62.08.93-.18-.3-.21-.61-.08-.93Z"/>
      <path class="cls-47" d="M22.89,89.95c0,.27.01.53.02.8-.34.07-.68.15-1.02.22.33-.34.67-.68,1-1.02Z"/>
      <path class="cls-45" d="M130.92,129.01c-.03-.38-.05-.75-.08-1.13,0,0-.04.02-.04.02.33.66.65,1.31.98,1.97-.29-.29-.58-.58-.86-.86Z"/>
      <path class="cls-85" d="M134.91,130.87c-.02.36-.04.73-.06,1.09.02-.36.04-.73.06-1.09Z"/>
      <path class="cls-61" d="M135.83,122.98c0,.29,0,.58-.02.87-.05-.29-.05-.58.02-.87Z"/>
      <path class="cls-49" d="M130.92,129.01c.29.29.58.58.86.86-.29-.29-.58-.58-.86-.86Z"/>
      <path class="cls-15" d="M119.84,2.02c.06.68.07,1.34-.09,2-.29.29-.58.58-.87.87-1.99.32-4.03.31-6.01-.07-.34-.61-.68-1.23-1.02-1.84,0,0-.23.07-.23.07,2.74-.29,5.47-1.14,8.22-1.03Z"/>
      <path class="cls-59" d="M114.51,5.09c.9,0,1.81.02,2.71.03.05,1.95.83,3.99.27,5.89-.53-.03-1.06-.06-1.59-.1-1.32-1.56-2.95-2.47-4.91-3.01.3-.59.59-1.17.88-1.76.88-.35,1.75-.7,2.63-1.06Z"/>
      <path class="cls-74" d="M119.75,4.03c.05-.3.1-.61.15-.91.3-.02.6-.03.9-.02.03.62.06,1.24.09,1.86-.38,0-.76-.02-1.14-.02.02-.3.02-.6,0-.91Z"/>
      <path class="cls-79" d="M120.83,11c-.27-.3-.55-.6-.82-.9.29,0,.58.01.87.03-.02.29-.03.58-.05.87Z"/>
      <path class="cls-59" d="M119.75,4.03c.01.3.01.6,0,.91-.29,0-.58,0-.86-.04.29-.29.58-.58.87-.87Z"/>
      <path class="cls-47" d="M18.74,85.87c.4-.57.81-1.15,1.21-1.72-.07.57-.05,1.12.09,1.68-.43.01-.87.03-1.3.04Z"/>
      <path class="cls-7" d="M20.04,85.83c-.05-.27-.1-.54-.15-.81.33.32.66.64.99.96,0,0,.05-.05.05-.05-.29-.03-.59-.07-.89-.09Z"/>
      <path class="cls-47" d="M21.93,87.02c.36.3.72.59,1.08.89-.36-.3-.72-.59-1.08-.89Z"/>
      <path class="cls-47" d="M24.15,89.78c-.42.06-.84.12-1.25.18.33-.35.66-.71.98-1.06,0,0,.21.32.21.32.03.19.05.38.06.57Z"/>
      <path class="cls-76" d="M60.85,14c1.01-.04,2.02-.02,3.03-.01-.02.31-.06.84.03,1.21-1.02-.4-2.04-.8-3.06-1.2Z"/>
      <path class="cls-59" d="M111.85,2.99c.34.61.68,1.23,1.02,1.84-.68.06-1.36.13-2.04.19,0,0,.1-.14.1-.14,0-.25-.02-.51-.02-.76.31-.38.63-.76.94-1.14Z"/>
      <path class="cls-9" d="M110.91,4.13c0,.25.01.51.02.76-.62-.28-1.25-.56-1.87-.83.62.02,1.23.05,1.85.07Z"/>
      <path class="cls-78" d="M155.88,80.92c.59-.66,1.18-1.33,1.76-1.99-.29,1.33-.57,2.66-.86,3.99,0,0,.08,0,.08,0-.64.03-1.28.05-1.92.08-.37-.32-.75-.63-1.12-.95.68-.38,1.35-.79,2.06-1.13Z"/>
      <path class="cls-19" d="M160.83,77.97c0,.31,0,.62-.02.93-.67-.32-1.35-.64-2.02-.97.68.01,1.36.03,2.04.04Z"/>
      <path class="cls-48" d="M81.81,12.19c-.62-.38-1.24-.76-1.85-1.14.62.38,1.24.76,1.85,1.14Z"/>
      <path class="cls-26" d="M86.98,10.09l-.22-.15s.38.11.22.15Z"/>
      <path class="cls-66" d="M58.83,23.99c.02.34.04.69.06,1.03-.33,0-.65-.04-.98-.08.31-.32.61-.64.91-.95Z"/>
      <path class="cls-63" d="M77.84,13.06c-.65-.03-1.3-.05-1.95-.08.7-.61,1.4-1.22,2.11-1.83-.05.64-.1,1.28-.15,1.91Z"/>
      <path class="cls-82" d="M20.88,85.97c-.33-.32-.66-.64-.99-.96.02-.29.04-.58.06-.87,1.36-.03,2.61.15,3.74.97.05.24.09.47.12.71-.98.05-1.95.1-2.93.15Z"/>
      <path class="cls-71" d="M153.01,78.85c.61.03,1.22.07,1.83.1,0,.33,0,.67,0,1-.66,0-1.31,0-1.97.01.05-.37.09-.74.14-1.12Z"/>
      <path class="cls-78" d="M154.84,79.96c0-.33,0-.67,0-1,0,0,0,0,0,0,.29,0,.58-.02.88-.03.05.67.1,1.33.16,2-.15.08-.3.15-.45.22-.2-.06-.4-.11-.61-.17v-1.01Z"/>
      <path class="cls-14" d="M154.83,80.97c.2.06.4.12.61.17-.54.3-1.07.6-1.61.91.33-.36.67-.72,1-1.08Z"/>
      <path class="cls-14" d="M154.95,83c.64-.03,1.28-.05,1.92-.08-.64.03-1.28.05-1.92.08Z"/>
      <path class="cls-57" d="M92.89,15.98c.65-.32,1.29-.65,1.94-.97-.65.32-1.29.65-1.94.97Z"/>
      <path class="cls-85" d="M96.9,17.04c.02.32,0,.63-.07.95.02-.32.04-.63.07-.95Z"/>
      <path class="cls-21" d="M138.9,108.92c-.34,0-.69.01-1.03.02.34-.33.68-.67,1.02-1,0,.33,0,.65.01.98Z"/>
      <path class="cls-48" d="M138.9,108.92c0-.33-.01-.65-.01-.98.26.04.52.08.78.13.06.25.11.5.16.76-.31.03-.61.07-.92.09Z"/>
      <path class="cls-21" d="M135.87,109.79c-.02-.28-.04-.56-.07-.84.32.37.65.73.97,1.1-.3-.08-.6-.17-.9-.26Z"/>
      <path class="cls-54" d="M135.87,109.79c.3.09.6.17.9.26-.02.27-.06.55-.11.81-.26-.36-.53-.72-.79-1.07Z"/>
      <path class="cls-45" d="M100.86,10.98c.34,0,.67,0,1.01,0,.27.3.55.61.82.91-.59.01-1.19.02-1.78.03-.02-.31-.04-.62-.05-.94Z"/>
      <path class="cls-85" d="M99.86,15.96c0,.33,0,.66,0,.99-.33,0-.67,0-1,.01,0-.31,0-.62.01-.93.33-.02.66-.05.99-.07Z"/>
      <path class="cls-16" d="M27.68,45.16c.08.28.17.55.27.82-.35,0-.7-.01-1.06-.02h0c.06-.32.11-.64.15-.96.21.06.42.12.63.16Z"/>
      <path class="cls-16" d="M20.88,108.93s.02.02.02.02c0,0-.02-.02-.02-.02Z"/>
      <path class="cls-62" d="M12.84,81.05c-.65-.03-1.31-.06-1.96-.09.69-.29,1.37-.59,2.06-.88-.03.33-.06.65-.1.98Z"/>
      <path class="cls-31" d="M80.86,14.98c-.66-.33-1.33-.66-1.99-.99.34,0,.67,0,1.01,0,.33.33.65.67.98,1Z"/>
      <path class="cls-16" d="M80.85,16.06c.05-.3.08-.6.09-.9-.04.3-.07.6-.09.9Z"/>
      <path class="cls-36" d="M160.83,77.97c-.68-.01-1.36-.03-2.04-.04.33-.34.66-.68,1-1.02.34,0,.68,0,1.02,0,0,0,.04.09.04.09-.01.32.03.65-.02.96Z"/>
      <path class="cls-71" d="M155.72,78.93c-.29.01-.58.02-.88.03-.02-.3-.05-.6-.07-.9.32.29.63.58.95.87Z"/>
      <path class="cls-59" d="M119.84,2.02c-.35-.02-.7-.05-1.05-.07.37-.31.73-.74,1.1-.97,0,.32,0,.63,0,.95l-.05.09Z"/>
      <path class="cls-82" d="M147.88,78.56c-.06-.87-.17-1.73.07-2.57.96.68,1.92,1.35,2.87,2.03-.66.29-1.32.57-1.98.86-.32-.1-.64-.21-.96-.31Z"/>
      <path class="cls-31" d="M148.84,78.87c.66-.29,1.32-.57,1.98-.86-.03.35-.05.7-.08,1.05-.64-.06-1.27-.13-1.91-.19Z"/>
      <path class="cls-67" d="M38.93,38.01c-.69-.34-1.38-.69-2.08-1.03.02-.67.01-1.33.03-2,.67.01,1.35-.02,2,.01.02,1.01.06,2.02-.01,3.02,0,0,.05,0,.05,0Z"/>
      <path class="cls-54" d="M36.88,35.93c0,.35-.01.69-.02,1.04-.31,0-.62,0-.93-.01.32-.34.63-.69.95-1.03Z"/>
      <path class="cls-74" d="M35.87,37.93c.02.56.04,1.12.07,1.68-.02-.56-.04-1.12-.07-1.68Z"/>
      <path class="cls-52" d="M12.04,103.68c-.03-.2-.05-.39-.08-.59.26-.03.52-.04.78-.02-.23.21-.46.42-.71.61Z"/>
      <path class="cls-17" d="M119.89,1.93c-.01-.32-.01-.63,0-.95.32.27.64.54.96.8-.32.06-.63.11-.95.15Z"/>
      <path class="cls-19" d="M142.83,120.81c.35.06.7.13,1.06.19,0,.3-.01.6-.01.9-.35-.36-.7-.72-1.04-1.08Z"/>
      <path class="cls-20" d="M143.88,121.89c0-.3,0-.6.01-.9.32.31.64.63.96.94-.32,0-.65,0-.97-.04Z"/>
      <path class="cls-49" d="M160.85,77.9c0-.3,0-.6,0-.9.05.3.05.6,0,.9Z"/>
      <path class="cls-19" d="M106.81,10.03c-.31.31-.61.62-.92.93,0-.32-.01-.63,0-.95.31,0,.62.01.92.02Z"/>
      <path class="cls-16" d="M55.97,139.82c.27-.27.53-.53.8-.79-.27.27-.53.53-.8.79Z"/>
      <path class="cls-68" d="M38.93,36.92c-.01-.64-.03-1.29-.04-1.93.29.03.57.05.86.07,0,0,.05.03.05.03,0,.31,0,.63.02.94-.3.3-.59.59-.89.89Z"/>
      <path class="cls-1" d="M39.98,34.02c.27.04.55.08.82.13.03.28.05.56.07.84-.36.03-.72.06-1.08.09,0,0-.05-.03-.05-.03.08-.34.15-.69.23-1.03Z"/>
      <path class="cls-67" d="M39.8,35.08c.36-.03.72-.06,1.08-.09.03.34.06.67.08,1.01,0,0-.38-.05-.38-.05-.25.03-.51.05-.76.07-.01-.31-.02-.63-.02-.94Z"/>
      <path class="cls-14" d="M41.95,36.94c-.31,0-.63,0-.94-.01-.14-.32-.28-.65-.42-.97.39.08.81.01,1.2,0,.05.33.11.66.16,1Z"/>
      <path class="cls-59" d="M128.02,105.92c.6.67,1.21,1.34,1.81,2.01-.34-.33-.67-.67-1.01-1-.35-.01-.7-.03-1.05-.04.08-.32.16-.65.24-.97Z"/>
      <path class="cls-48" d="M124.8,104.02c.36-.37.72-.73,1.08-1.1.32.03.64.05.96.06,0,0,.02.15.02.15.3.28.6.56.9.84,0,0,0,.12,0,.12,0,.27.02.54.04.81,0,0-.01,0-.01,0-.93.03-1.87.12-2.79-.03-.08-.28-.14-.56-.19-.84Z"/>
      <path class="cls-36" d="M125.82,104.97c.65-.02,1.31-.05,1.96-.08.23.68.26,1.33,0,2-.65-.64-1.3-1.28-1.96-1.93Z"/>
      <path class="cls-64" d="M132.84,109.93c.69.69,1.4,1.42,2.08,2.09-.7-.37-1.41-.74-2.11-1.11,0-.33.01-.65.03-.98Z"/>
      <path class="cls-59" d="M132.84,109.93c-.01.33-.02.65-.03.98,0-.33.02-.65.03-.98Z"/>
      <path class="cls-36" d="M127.79,104.89c-.02-.27-.04-.54-.04-.81.28-.03.57-.05.85-.07-.27.29-.54.59-.81.88Z"/>
      <path class="cls-60" d="M128.83,106.93c.34.33.67.67,1.01,1-.34-.33-.67-.67-1.01-1Z"/>
      <path class="cls-57" d="M11.95,73.08c-.06.59-.05,1.18.09,1.76-.71-.26-1.41-.52-2.12-.78.31-.37.63-.75.94-1.12.36.05.72.1,1.09.14Z"/>
      <path class="cls-82" d="M38.73,51.02c-.2.27-.44.49-.72.66.24-.22.48-.44.72-.66Z"/>
      <path class="cls-56" d="M98.85,16.96c.33,0,.67,0,1-.01.3.29.59.58.89.87-.63-.29-1.26-.57-1.89-.86Z"/>
      <path class="cls-68" d="M103.77,15.13c-.04.22-.09.43-.15.65,0,0-.17-.37-.17-.37l.32-.27Z"/>
      <path class="cls-61" d="M40,38.89c-.03.37-.07.74-.1,1.11-.32-.67-.65-1.33-.97-2,0,0-.05,0-.05,0,.37.29.75.59,1.12.88Z"/>
      <path class="cls-21" d="M39.87,39.92c.07.3.08.6.05.91,0-.3-.03-.6-.05-.91Z"/>
      <path class="cls-36" d="M110.83,5.02c1.24-.16,2.46-.23,3.68.07-.88.35-1.75.7-2.63,1.06-.35-.07-.7-.15-1.06-.22,0-.3,0-.6,0-.9Z"/>
      <path class="cls-20" d="M63.85,14.84c0-.29.02-.58.02-.87.67,0,1.34,0,2.01,0-.36.36-.72.72-1.08,1.09-.32-.08-.63-.15-.95-.23Z"/>
      <path class="cls-55" d="M40,38.89c-.37-.29-.75-.59-1.12-.88.02-.36.03-.73.05-1.09.3-.3.6-.6.89-.89.25-.02.51-.04.76-.07.36.64.48,1.27.32,1.99-.3.32-.6.63-.9.95Z"/>
      <path class="cls-59" d="M43.73,53.91c-.17-.02-.34-.04-.51-.06.17,0,.34.03.51.06Z"/>
      <path class="cls-16" d="M118.78,11.94c-.32.03-.64.06-.96.07.04-.31.11-.62.2-.92.25.28.5.56.76.85Z"/>
      <path class="cls-16" d="M24.15,89.78c-.01-.19-.03-.38-.06-.57.19-.04.37-.08.55-.13-.18.23-.34.46-.49.7Z"/>
      <path class="cls-18" d="M63.88,13.99c-.67,0-1.33-.01-1.99-.02,0-.33-.01-.66-.02-.98.67,0,1.35,0,2.02,0,0,.33-.01.66,0,1Z"/>
      <path class="cls-36" d="M127.76,103.96c-.3-.28-.6-.56-.9-.84.3.28.6.56.9.84Z"/>
    </g>
  </g>
</svg>